%TF.GenerationSoftware,KiCad,Pcbnew,7.0.7*%
%TF.CreationDate,2023-09-01T15:02:05-05:00*%
%TF.ProjectId,SNES_RGB_BYPASS_AMP,534e4553-5f52-4474-925f-425950415353,rev?*%
%TF.SameCoordinates,Original*%
%TF.FileFunction,Legend,Top*%
%TF.FilePolarity,Positive*%
%FSLAX46Y46*%
G04 Gerber Fmt 4.6, Leading zero omitted, Abs format (unit mm)*
G04 Created by KiCad (PCBNEW 7.0.7) date 2023-09-01 15:02:05*
%MOMM*%
%LPD*%
G01*
G04 APERTURE LIST*
%ADD10C,0.150000*%
%ADD11C,0.100000*%
%ADD12C,0.120000*%
G04 APERTURE END LIST*
D10*
X131500000Y-88500000D02*
X131500000Y-95000000D01*
D11*
X134141979Y-85596895D02*
X134599122Y-85596895D01*
X134370550Y-86396895D02*
X134370550Y-85596895D01*
X134751503Y-85596895D02*
X135208646Y-85596895D01*
X134980074Y-86396895D02*
X134980074Y-85596895D01*
X135856265Y-86396895D02*
X135475313Y-86396895D01*
X135475313Y-86396895D02*
X135475313Y-85596895D01*
X128096895Y-90591353D02*
X128096895Y-90438972D01*
X128096895Y-90438972D02*
X128134990Y-90362782D01*
X128134990Y-90362782D02*
X128211180Y-90286591D01*
X128211180Y-90286591D02*
X128363561Y-90248496D01*
X128363561Y-90248496D02*
X128630228Y-90248496D01*
X128630228Y-90248496D02*
X128782609Y-90286591D01*
X128782609Y-90286591D02*
X128858800Y-90362782D01*
X128858800Y-90362782D02*
X128896895Y-90438972D01*
X128896895Y-90438972D02*
X128896895Y-90591353D01*
X128896895Y-90591353D02*
X128858800Y-90667544D01*
X128858800Y-90667544D02*
X128782609Y-90743734D01*
X128782609Y-90743734D02*
X128630228Y-90781830D01*
X128630228Y-90781830D02*
X128363561Y-90781830D01*
X128363561Y-90781830D02*
X128211180Y-90743734D01*
X128211180Y-90743734D02*
X128134990Y-90667544D01*
X128134990Y-90667544D02*
X128096895Y-90591353D01*
X128896895Y-89905639D02*
X128096895Y-89905639D01*
X128096895Y-89905639D02*
X128896895Y-89448496D01*
X128896895Y-89448496D02*
X128096895Y-89448496D01*
D10*
X132869819Y-92187030D02*
X132869819Y-92663220D01*
X132869819Y-92663220D02*
X131869819Y-92663220D01*
X132869819Y-91853696D02*
X131869819Y-91853696D01*
X131869819Y-91853696D02*
X131869819Y-91472744D01*
X131869819Y-91472744D02*
X131917438Y-91377506D01*
X131917438Y-91377506D02*
X131965057Y-91329887D01*
X131965057Y-91329887D02*
X132060295Y-91282268D01*
X132060295Y-91282268D02*
X132203152Y-91282268D01*
X132203152Y-91282268D02*
X132298390Y-91329887D01*
X132298390Y-91329887D02*
X132346009Y-91377506D01*
X132346009Y-91377506D02*
X132393628Y-91472744D01*
X132393628Y-91472744D02*
X132393628Y-91853696D01*
X132346009Y-90520363D02*
X132346009Y-90853696D01*
X132869819Y-90853696D02*
X131869819Y-90853696D01*
X131869819Y-90853696D02*
X131869819Y-90377506D01*
D11*
X128096895Y-94091353D02*
X128096895Y-93938972D01*
X128096895Y-93938972D02*
X128134990Y-93862782D01*
X128134990Y-93862782D02*
X128211180Y-93786591D01*
X128211180Y-93786591D02*
X128363561Y-93748496D01*
X128363561Y-93748496D02*
X128630228Y-93748496D01*
X128630228Y-93748496D02*
X128782609Y-93786591D01*
X128782609Y-93786591D02*
X128858800Y-93862782D01*
X128858800Y-93862782D02*
X128896895Y-93938972D01*
X128896895Y-93938972D02*
X128896895Y-94091353D01*
X128896895Y-94091353D02*
X128858800Y-94167544D01*
X128858800Y-94167544D02*
X128782609Y-94243734D01*
X128782609Y-94243734D02*
X128630228Y-94281830D01*
X128630228Y-94281830D02*
X128363561Y-94281830D01*
X128363561Y-94281830D02*
X128211180Y-94243734D01*
X128211180Y-94243734D02*
X128134990Y-94167544D01*
X128134990Y-94167544D02*
X128096895Y-94091353D01*
X128477847Y-93138973D02*
X128477847Y-93405639D01*
X128896895Y-93405639D02*
X128096895Y-93405639D01*
X128096895Y-93405639D02*
X128096895Y-93024687D01*
X128477847Y-92453259D02*
X128477847Y-92719925D01*
X128896895Y-92719925D02*
X128096895Y-92719925D01*
X128096895Y-92719925D02*
X128096895Y-92338973D01*
D10*
X128333333Y-86859580D02*
X128285714Y-86907200D01*
X128285714Y-86907200D02*
X128142857Y-86954819D01*
X128142857Y-86954819D02*
X128047619Y-86954819D01*
X128047619Y-86954819D02*
X127904762Y-86907200D01*
X127904762Y-86907200D02*
X127809524Y-86811961D01*
X127809524Y-86811961D02*
X127761905Y-86716723D01*
X127761905Y-86716723D02*
X127714286Y-86526247D01*
X127714286Y-86526247D02*
X127714286Y-86383390D01*
X127714286Y-86383390D02*
X127761905Y-86192914D01*
X127761905Y-86192914D02*
X127809524Y-86097676D01*
X127809524Y-86097676D02*
X127904762Y-86002438D01*
X127904762Y-86002438D02*
X128047619Y-85954819D01*
X128047619Y-85954819D02*
X128142857Y-85954819D01*
X128142857Y-85954819D02*
X128285714Y-86002438D01*
X128285714Y-86002438D02*
X128333333Y-86050057D01*
X129285714Y-86954819D02*
X128714286Y-86954819D01*
X129000000Y-86954819D02*
X129000000Y-85954819D01*
X129000000Y-85954819D02*
X128904762Y-86097676D01*
X128904762Y-86097676D02*
X128809524Y-86192914D01*
X128809524Y-86192914D02*
X128714286Y-86240533D01*
X131833333Y-80454819D02*
X131500000Y-79978628D01*
X131261905Y-80454819D02*
X131261905Y-79454819D01*
X131261905Y-79454819D02*
X131642857Y-79454819D01*
X131642857Y-79454819D02*
X131738095Y-79502438D01*
X131738095Y-79502438D02*
X131785714Y-79550057D01*
X131785714Y-79550057D02*
X131833333Y-79645295D01*
X131833333Y-79645295D02*
X131833333Y-79788152D01*
X131833333Y-79788152D02*
X131785714Y-79883390D01*
X131785714Y-79883390D02*
X131738095Y-79931009D01*
X131738095Y-79931009D02*
X131642857Y-79978628D01*
X131642857Y-79978628D02*
X131261905Y-79978628D01*
X132738095Y-79454819D02*
X132261905Y-79454819D01*
X132261905Y-79454819D02*
X132214286Y-79931009D01*
X132214286Y-79931009D02*
X132261905Y-79883390D01*
X132261905Y-79883390D02*
X132357143Y-79835771D01*
X132357143Y-79835771D02*
X132595238Y-79835771D01*
X132595238Y-79835771D02*
X132690476Y-79883390D01*
X132690476Y-79883390D02*
X132738095Y-79931009D01*
X132738095Y-79931009D02*
X132785714Y-80026247D01*
X132785714Y-80026247D02*
X132785714Y-80264342D01*
X132785714Y-80264342D02*
X132738095Y-80359580D01*
X132738095Y-80359580D02*
X132690476Y-80407200D01*
X132690476Y-80407200D02*
X132595238Y-80454819D01*
X132595238Y-80454819D02*
X132357143Y-80454819D01*
X132357143Y-80454819D02*
X132261905Y-80407200D01*
X132261905Y-80407200D02*
X132214286Y-80359580D01*
X128954819Y-97166666D02*
X128478628Y-97499999D01*
X128954819Y-97738094D02*
X127954819Y-97738094D01*
X127954819Y-97738094D02*
X127954819Y-97357142D01*
X127954819Y-97357142D02*
X128002438Y-97261904D01*
X128002438Y-97261904D02*
X128050057Y-97214285D01*
X128050057Y-97214285D02*
X128145295Y-97166666D01*
X128145295Y-97166666D02*
X128288152Y-97166666D01*
X128288152Y-97166666D02*
X128383390Y-97214285D01*
X128383390Y-97214285D02*
X128431009Y-97261904D01*
X128431009Y-97261904D02*
X128478628Y-97357142D01*
X128478628Y-97357142D02*
X128478628Y-97738094D01*
X128288152Y-96309523D02*
X128954819Y-96309523D01*
X127907200Y-96547618D02*
X128621485Y-96785713D01*
X128621485Y-96785713D02*
X128621485Y-96166666D01*
X135833333Y-95454819D02*
X135500000Y-94978628D01*
X135261905Y-95454819D02*
X135261905Y-94454819D01*
X135261905Y-94454819D02*
X135642857Y-94454819D01*
X135642857Y-94454819D02*
X135738095Y-94502438D01*
X135738095Y-94502438D02*
X135785714Y-94550057D01*
X135785714Y-94550057D02*
X135833333Y-94645295D01*
X135833333Y-94645295D02*
X135833333Y-94788152D01*
X135833333Y-94788152D02*
X135785714Y-94883390D01*
X135785714Y-94883390D02*
X135738095Y-94931009D01*
X135738095Y-94931009D02*
X135642857Y-94978628D01*
X135642857Y-94978628D02*
X135261905Y-94978628D01*
X136166667Y-94454819D02*
X136785714Y-94454819D01*
X136785714Y-94454819D02*
X136452381Y-94835771D01*
X136452381Y-94835771D02*
X136595238Y-94835771D01*
X136595238Y-94835771D02*
X136690476Y-94883390D01*
X136690476Y-94883390D02*
X136738095Y-94931009D01*
X136738095Y-94931009D02*
X136785714Y-95026247D01*
X136785714Y-95026247D02*
X136785714Y-95264342D01*
X136785714Y-95264342D02*
X136738095Y-95359580D01*
X136738095Y-95359580D02*
X136690476Y-95407200D01*
X136690476Y-95407200D02*
X136595238Y-95454819D01*
X136595238Y-95454819D02*
X136309524Y-95454819D01*
X136309524Y-95454819D02*
X136214286Y-95407200D01*
X136214286Y-95407200D02*
X136166667Y-95359580D01*
X137833333Y-95454819D02*
X137500000Y-94978628D01*
X137261905Y-95454819D02*
X137261905Y-94454819D01*
X137261905Y-94454819D02*
X137642857Y-94454819D01*
X137642857Y-94454819D02*
X137738095Y-94502438D01*
X137738095Y-94502438D02*
X137785714Y-94550057D01*
X137785714Y-94550057D02*
X137833333Y-94645295D01*
X137833333Y-94645295D02*
X137833333Y-94788152D01*
X137833333Y-94788152D02*
X137785714Y-94883390D01*
X137785714Y-94883390D02*
X137738095Y-94931009D01*
X137738095Y-94931009D02*
X137642857Y-94978628D01*
X137642857Y-94978628D02*
X137261905Y-94978628D01*
X138214286Y-94550057D02*
X138261905Y-94502438D01*
X138261905Y-94502438D02*
X138357143Y-94454819D01*
X138357143Y-94454819D02*
X138595238Y-94454819D01*
X138595238Y-94454819D02*
X138690476Y-94502438D01*
X138690476Y-94502438D02*
X138738095Y-94550057D01*
X138738095Y-94550057D02*
X138785714Y-94645295D01*
X138785714Y-94645295D02*
X138785714Y-94740533D01*
X138785714Y-94740533D02*
X138738095Y-94883390D01*
X138738095Y-94883390D02*
X138166667Y-95454819D01*
X138166667Y-95454819D02*
X138785714Y-95454819D01*
X138333333Y-80454819D02*
X138000000Y-79978628D01*
X137761905Y-80454819D02*
X137761905Y-79454819D01*
X137761905Y-79454819D02*
X138142857Y-79454819D01*
X138142857Y-79454819D02*
X138238095Y-79502438D01*
X138238095Y-79502438D02*
X138285714Y-79550057D01*
X138285714Y-79550057D02*
X138333333Y-79645295D01*
X138333333Y-79645295D02*
X138333333Y-79788152D01*
X138333333Y-79788152D02*
X138285714Y-79883390D01*
X138285714Y-79883390D02*
X138238095Y-79931009D01*
X138238095Y-79931009D02*
X138142857Y-79978628D01*
X138142857Y-79978628D02*
X137761905Y-79978628D01*
X138666667Y-79454819D02*
X139333333Y-79454819D01*
X139333333Y-79454819D02*
X138904762Y-80454819D01*
X134833333Y-80454819D02*
X134500000Y-79978628D01*
X134261905Y-80454819D02*
X134261905Y-79454819D01*
X134261905Y-79454819D02*
X134642857Y-79454819D01*
X134642857Y-79454819D02*
X134738095Y-79502438D01*
X134738095Y-79502438D02*
X134785714Y-79550057D01*
X134785714Y-79550057D02*
X134833333Y-79645295D01*
X134833333Y-79645295D02*
X134833333Y-79788152D01*
X134833333Y-79788152D02*
X134785714Y-79883390D01*
X134785714Y-79883390D02*
X134738095Y-79931009D01*
X134738095Y-79931009D02*
X134642857Y-79978628D01*
X134642857Y-79978628D02*
X134261905Y-79978628D01*
X135404762Y-79883390D02*
X135309524Y-79835771D01*
X135309524Y-79835771D02*
X135261905Y-79788152D01*
X135261905Y-79788152D02*
X135214286Y-79692914D01*
X135214286Y-79692914D02*
X135214286Y-79645295D01*
X135214286Y-79645295D02*
X135261905Y-79550057D01*
X135261905Y-79550057D02*
X135309524Y-79502438D01*
X135309524Y-79502438D02*
X135404762Y-79454819D01*
X135404762Y-79454819D02*
X135595238Y-79454819D01*
X135595238Y-79454819D02*
X135690476Y-79502438D01*
X135690476Y-79502438D02*
X135738095Y-79550057D01*
X135738095Y-79550057D02*
X135785714Y-79645295D01*
X135785714Y-79645295D02*
X135785714Y-79692914D01*
X135785714Y-79692914D02*
X135738095Y-79788152D01*
X135738095Y-79788152D02*
X135690476Y-79835771D01*
X135690476Y-79835771D02*
X135595238Y-79883390D01*
X135595238Y-79883390D02*
X135404762Y-79883390D01*
X135404762Y-79883390D02*
X135309524Y-79931009D01*
X135309524Y-79931009D02*
X135261905Y-79978628D01*
X135261905Y-79978628D02*
X135214286Y-80073866D01*
X135214286Y-80073866D02*
X135214286Y-80264342D01*
X135214286Y-80264342D02*
X135261905Y-80359580D01*
X135261905Y-80359580D02*
X135309524Y-80407200D01*
X135309524Y-80407200D02*
X135404762Y-80454819D01*
X135404762Y-80454819D02*
X135595238Y-80454819D01*
X135595238Y-80454819D02*
X135690476Y-80407200D01*
X135690476Y-80407200D02*
X135738095Y-80359580D01*
X135738095Y-80359580D02*
X135785714Y-80264342D01*
X135785714Y-80264342D02*
X135785714Y-80073866D01*
X135785714Y-80073866D02*
X135738095Y-79978628D01*
X135738095Y-79978628D02*
X135690476Y-79931009D01*
X135690476Y-79931009D02*
X135595238Y-79883390D01*
X140333333Y-95454819D02*
X140000000Y-94978628D01*
X139761905Y-95454819D02*
X139761905Y-94454819D01*
X139761905Y-94454819D02*
X140142857Y-94454819D01*
X140142857Y-94454819D02*
X140238095Y-94502438D01*
X140238095Y-94502438D02*
X140285714Y-94550057D01*
X140285714Y-94550057D02*
X140333333Y-94645295D01*
X140333333Y-94645295D02*
X140333333Y-94788152D01*
X140333333Y-94788152D02*
X140285714Y-94883390D01*
X140285714Y-94883390D02*
X140238095Y-94931009D01*
X140238095Y-94931009D02*
X140142857Y-94978628D01*
X140142857Y-94978628D02*
X139761905Y-94978628D01*
X141285714Y-95454819D02*
X140714286Y-95454819D01*
X141000000Y-95454819D02*
X141000000Y-94454819D01*
X141000000Y-94454819D02*
X140904762Y-94597676D01*
X140904762Y-94597676D02*
X140809524Y-94692914D01*
X140809524Y-94692914D02*
X140714286Y-94740533D01*
X141333333Y-80454819D02*
X141000000Y-79978628D01*
X140761905Y-80454819D02*
X140761905Y-79454819D01*
X140761905Y-79454819D02*
X141142857Y-79454819D01*
X141142857Y-79454819D02*
X141238095Y-79502438D01*
X141238095Y-79502438D02*
X141285714Y-79550057D01*
X141285714Y-79550057D02*
X141333333Y-79645295D01*
X141333333Y-79645295D02*
X141333333Y-79788152D01*
X141333333Y-79788152D02*
X141285714Y-79883390D01*
X141285714Y-79883390D02*
X141238095Y-79931009D01*
X141238095Y-79931009D02*
X141142857Y-79978628D01*
X141142857Y-79978628D02*
X140761905Y-79978628D01*
X142190476Y-79454819D02*
X142000000Y-79454819D01*
X142000000Y-79454819D02*
X141904762Y-79502438D01*
X141904762Y-79502438D02*
X141857143Y-79550057D01*
X141857143Y-79550057D02*
X141761905Y-79692914D01*
X141761905Y-79692914D02*
X141714286Y-79883390D01*
X141714286Y-79883390D02*
X141714286Y-80264342D01*
X141714286Y-80264342D02*
X141761905Y-80359580D01*
X141761905Y-80359580D02*
X141809524Y-80407200D01*
X141809524Y-80407200D02*
X141904762Y-80454819D01*
X141904762Y-80454819D02*
X142095238Y-80454819D01*
X142095238Y-80454819D02*
X142190476Y-80407200D01*
X142190476Y-80407200D02*
X142238095Y-80359580D01*
X142238095Y-80359580D02*
X142285714Y-80264342D01*
X142285714Y-80264342D02*
X142285714Y-80026247D01*
X142285714Y-80026247D02*
X142238095Y-79931009D01*
X142238095Y-79931009D02*
X142190476Y-79883390D01*
X142190476Y-79883390D02*
X142095238Y-79835771D01*
X142095238Y-79835771D02*
X141904762Y-79835771D01*
X141904762Y-79835771D02*
X141809524Y-79883390D01*
X141809524Y-79883390D02*
X141761905Y-79931009D01*
X141761905Y-79931009D02*
X141714286Y-80026247D01*
X132333333Y-86859580D02*
X132285714Y-86907200D01*
X132285714Y-86907200D02*
X132142857Y-86954819D01*
X132142857Y-86954819D02*
X132047619Y-86954819D01*
X132047619Y-86954819D02*
X131904762Y-86907200D01*
X131904762Y-86907200D02*
X131809524Y-86811961D01*
X131809524Y-86811961D02*
X131761905Y-86716723D01*
X131761905Y-86716723D02*
X131714286Y-86526247D01*
X131714286Y-86526247D02*
X131714286Y-86383390D01*
X131714286Y-86383390D02*
X131761905Y-86192914D01*
X131761905Y-86192914D02*
X131809524Y-86097676D01*
X131809524Y-86097676D02*
X131904762Y-86002438D01*
X131904762Y-86002438D02*
X132047619Y-85954819D01*
X132047619Y-85954819D02*
X132142857Y-85954819D01*
X132142857Y-85954819D02*
X132285714Y-86002438D01*
X132285714Y-86002438D02*
X132333333Y-86050057D01*
X132714286Y-86050057D02*
X132761905Y-86002438D01*
X132761905Y-86002438D02*
X132857143Y-85954819D01*
X132857143Y-85954819D02*
X133095238Y-85954819D01*
X133095238Y-85954819D02*
X133190476Y-86002438D01*
X133190476Y-86002438D02*
X133238095Y-86050057D01*
X133238095Y-86050057D02*
X133285714Y-86145295D01*
X133285714Y-86145295D02*
X133285714Y-86240533D01*
X133285714Y-86240533D02*
X133238095Y-86383390D01*
X133238095Y-86383390D02*
X132666667Y-86954819D01*
X132666667Y-86954819D02*
X133285714Y-86954819D01*
D12*
%TO.C,C1*%
X129513000Y-83914348D02*
X129513000Y-84436852D01*
X128043000Y-83914348D02*
X128043000Y-84436852D01*
%TO.C,U1*%
X136836000Y-85344000D02*
X136836000Y-88944000D01*
X136836000Y-85344000D02*
X136836000Y-83144000D01*
X142056000Y-85344000D02*
X142056000Y-87544000D01*
X142056000Y-85344000D02*
X142056000Y-83144000D01*
%TO.C,R5*%
X132510200Y-77157948D02*
X132510200Y-77680452D01*
X131040200Y-77157948D02*
X131040200Y-77680452D01*
%TO.C,R4*%
X130735000Y-96738748D02*
X130735000Y-97261252D01*
X129265000Y-96738748D02*
X129265000Y-97261252D01*
%TO.C,R3*%
X135265000Y-92761252D02*
X135265000Y-92238748D01*
X136735000Y-92761252D02*
X136735000Y-92238748D01*
%TO.C,J1*%
X134690000Y-98805000D02*
X142370000Y-98805000D01*
X134690000Y-98805000D02*
X134690000Y-96145000D01*
X142370000Y-98805000D02*
X142370000Y-96145000D01*
X132090000Y-97475000D02*
X132090000Y-96145000D01*
X132090000Y-96145000D02*
X133420000Y-96145000D01*
X134690000Y-96145000D02*
X142370000Y-96145000D01*
%TO.C,R2*%
X137265000Y-92761252D02*
X137265000Y-92238748D01*
X138735000Y-92761252D02*
X138735000Y-92238748D01*
%TO.C,R7*%
X139012600Y-77157948D02*
X139012600Y-77680452D01*
X137542600Y-77157948D02*
X137542600Y-77680452D01*
%TO.C,R8*%
X135761400Y-77157948D02*
X135761400Y-77680452D01*
X134291400Y-77157948D02*
X134291400Y-77680452D01*
%TO.C,R1*%
X139765000Y-92761252D02*
X139765000Y-92238748D01*
X141235000Y-92761252D02*
X141235000Y-92238748D01*
%TO.C,R6*%
X142111400Y-77122348D02*
X142111400Y-77644852D01*
X140641400Y-77122348D02*
X140641400Y-77644852D01*
%TO.C,JP3*%
X134000000Y-85400000D02*
X134000000Y-82600000D01*
X136000000Y-85400000D02*
X134000000Y-85400000D01*
X134000000Y-82600000D02*
X136000000Y-82600000D01*
X136000000Y-82600000D02*
X136000000Y-85400000D01*
%TO.C,C2*%
X132992800Y-83863548D02*
X132992800Y-84386052D01*
X131522800Y-83863548D02*
X131522800Y-84386052D01*
%TD*%
M02*
