M48
; DRILL file {KiCad 7.0.7} date Fri Sep  1 15:02:04 2023
; FORMAT={-:-/ absolute / inch / decimal}
; #@! TF.CreationDate,2023-09-01T15:02:04-05:00
; #@! TF.GenerationSoftware,Kicad,Pcbnew,7.0.7
; #@! TF.FileFunction,Plated,1,2,PTH
FMAT,2
INCH
; #@! TA.AperFunction,Plated,PTH,ViaDrill
T1C0.0157
; #@! TA.AperFunction,Plated,PTH,ComponentDrill
T2C0.0394
%
G90
G05
T1
X5.07Y-3.2766
X5.07Y-3.3514
X5.1378Y-2.9528
X5.1486Y-3.4646
X5.1772Y-3.4252
X5.207Y-3.2746
X5.207Y-3.3494
X5.2362Y-3.189
X5.3341Y-2.9522
X5.3543Y-3.1299
X5.3543Y-3.4646
X5.3543Y-3.6791
X5.374Y-3.189
X5.4331Y-3.6791
X5.4359Y-3.1693
X5.4921Y-3.3661
X5.4929Y-3.1299
X5.5315Y-3.6791
X5.5441Y-3.4098
X5.5709Y-3.1693
X5.5906Y-3.622
T2
X5.064Y-2.7902
X5.064Y-2.8902
X5.164Y-2.7902
X5.164Y-2.8902
X5.264Y-2.7902
X5.264Y-2.8902
X5.364Y-2.7902
X5.364Y-2.8902
X5.464Y-2.7902
X5.464Y-2.8902
X5.564Y-2.7902
X5.564Y-2.8902
T0
M30
