%TF.GenerationSoftware,KiCad,Pcbnew,7.0.7*%
%TF.CreationDate,2023-09-01T15:02:05-05:00*%
%TF.ProjectId,SNES_RGB_BYPASS_AMP,534e4553-5f52-4474-925f-425950415353,rev?*%
%TF.SameCoordinates,Original*%
%TF.FileFunction,Copper,L2,Bot*%
%TF.FilePolarity,Positive*%
%FSLAX46Y46*%
G04 Gerber Fmt 4.6, Leading zero omitted, Abs format (unit mm)*
G04 Created by KiCad (PCBNEW 7.0.7) date 2023-09-01 15:02:05*
%MOMM*%
%LPD*%
G01*
G04 APERTURE LIST*
%TA.AperFunction,ComponentPad*%
%ADD10C,1.700000*%
%TD*%
%TA.AperFunction,ComponentPad*%
%ADD11O,1.700000X1.700000*%
%TD*%
%TA.AperFunction,ViaPad*%
%ADD12C,0.800000*%
%TD*%
%TA.AperFunction,Conductor*%
%ADD13C,0.250000*%
%TD*%
G04 APERTURE END LIST*
D10*
%TO.P,J2,1,Pin_1*%
%TO.N,/R'*%
X141325600Y-73411000D03*
D11*
%TO.P,J2,2,Pin_2*%
%TO.N,/G'*%
X141325600Y-70871000D03*
%TO.P,J2,3,Pin_3*%
%TO.N,unconnected-(J2-Pin_3-Pad3)*%
X138785600Y-73411000D03*
%TO.P,J2,4,Pin_4*%
%TO.N,/B'*%
X138785600Y-70871000D03*
%TO.P,J2,5,Pin_5*%
%TO.N,GND*%
X136245600Y-73411000D03*
%TO.P,J2,6,Pin_6*%
%TO.N,unconnected-(J2-Pin_6-Pad6)*%
X136245600Y-70871000D03*
%TO.P,J2,7,Pin_7*%
%TO.N,unconnected-(J2-Pin_7-Pad7)*%
X133705600Y-73411000D03*
%TO.P,J2,8,Pin_8*%
%TO.N,/CSync'*%
X133705600Y-70871000D03*
%TO.P,J2,9,Pin_9*%
%TO.N,unconnected-(J2-Pin_9-Pad9)*%
X131165600Y-73411000D03*
%TO.P,J2,10,Pin_10*%
%TO.N,VCC*%
X131165600Y-70871000D03*
%TO.P,J2,11,Pin_11*%
%TO.N,unconnected-(J2-Pin_11-Pad11)*%
X128625600Y-73411000D03*
%TO.P,J2,12,Pin_12*%
%TO.N,unconnected-(J2-Pin_12-Pad12)*%
X128625600Y-70871000D03*
%TD*%
D12*
%TO.N,VCC*%
X132257800Y-83174800D03*
X136000000Y-88000000D03*
X130775500Y-88000000D03*
X128778000Y-83225600D03*
%TO.N,GND*%
X142000000Y-92000000D03*
X132257800Y-85074800D03*
X139500000Y-85500000D03*
X138000000Y-93450000D03*
X135485501Y-74985501D03*
X128778000Y-85125600D03*
X130500000Y-75000000D03*
X140500000Y-93450000D03*
X136000000Y-93450000D03*
%TO.N,Net-(JP3-A)*%
X133000000Y-81000000D03*
X136500000Y-81000000D03*
%TO.N,Net-(JP1-B)*%
X140820500Y-86608299D03*
X131500000Y-87000000D03*
%TO.N,Net-(U1-CH2_OUT)*%
X138071500Y-80500000D03*
X141500000Y-80500000D03*
%TO.N,Net-(U1-CH4_OUT)*%
X139520500Y-79500000D03*
X136000000Y-79500000D03*
%TD*%
D13*
%TO.N,VCC*%
X130775500Y-88000000D02*
X136000000Y-88000000D01*
X128828800Y-83174800D02*
X132257800Y-83174800D01*
X128778000Y-83225600D02*
X128828800Y-83174800D01*
%TO.N,GND*%
X138000000Y-93450000D02*
X136000000Y-93450000D01*
X140500000Y-93450000D02*
X138000000Y-93450000D01*
X142000000Y-92000000D02*
X140500000Y-93500000D01*
X130514499Y-74985501D02*
X130500000Y-75000000D01*
X132257800Y-85074800D02*
X139074800Y-85074800D01*
X135485501Y-74985501D02*
X130514499Y-74985501D01*
X139074800Y-85074800D02*
X139500000Y-85500000D01*
X128778000Y-85125600D02*
X132207000Y-85125600D01*
X132207000Y-85125600D02*
X132257800Y-85074800D01*
%TO.N,Net-(JP3-A)*%
X133000000Y-81000000D02*
X136500000Y-81000000D01*
%TO.N,Net-(JP1-B)*%
X140820500Y-86608299D02*
X131891701Y-86608299D01*
X131891701Y-86608299D02*
X131500000Y-87000000D01*
%TO.N,Net-(U1-CH2_OUT)*%
X141500000Y-80500000D02*
X138071500Y-80500000D01*
%TO.N,Net-(U1-CH4_OUT)*%
X136000000Y-79500000D02*
X139520500Y-79500000D01*
%TD*%
M02*
