%TF.GenerationSoftware,KiCad,Pcbnew,7.0.7*%
%TF.CreationDate,2023-09-03T00:48:05-05:00*%
%TF.ProjectId,SNES_RGB_BYPASS_AMP,534e4553-5f52-4474-925f-425950415353,rev?*%
%TF.SameCoordinates,Original*%
%TF.FileFunction,Legend,Top*%
%TF.FilePolarity,Positive*%
%FSLAX46Y46*%
G04 Gerber Fmt 4.6, Leading zero omitted, Abs format (unit mm)*
G04 Created by KiCad (PCBNEW 7.0.7) date 2023-09-03 00:48:05*
%MOMM*%
%LPD*%
G01*
G04 APERTURE LIST*
%ADD10C,0.150000*%
%ADD11C,0.120000*%
G04 APERTURE END LIST*
D10*
X133246303Y-95718104D02*
X133208207Y-95756200D01*
X133208207Y-95756200D02*
X133093922Y-95794295D01*
X133093922Y-95794295D02*
X133017731Y-95794295D01*
X133017731Y-95794295D02*
X132903445Y-95756200D01*
X132903445Y-95756200D02*
X132827255Y-95680009D01*
X132827255Y-95680009D02*
X132789160Y-95603819D01*
X132789160Y-95603819D02*
X132751064Y-95451438D01*
X132751064Y-95451438D02*
X132751064Y-95337152D01*
X132751064Y-95337152D02*
X132789160Y-95184771D01*
X132789160Y-95184771D02*
X132827255Y-95108580D01*
X132827255Y-95108580D02*
X132903445Y-95032390D01*
X132903445Y-95032390D02*
X133017731Y-94994295D01*
X133017731Y-94994295D02*
X133093922Y-94994295D01*
X133093922Y-94994295D02*
X133208207Y-95032390D01*
X133208207Y-95032390D02*
X133246303Y-95070485D01*
X133551064Y-95756200D02*
X133665350Y-95794295D01*
X133665350Y-95794295D02*
X133855826Y-95794295D01*
X133855826Y-95794295D02*
X133932017Y-95756200D01*
X133932017Y-95756200D02*
X133970112Y-95718104D01*
X133970112Y-95718104D02*
X134008207Y-95641914D01*
X134008207Y-95641914D02*
X134008207Y-95565723D01*
X134008207Y-95565723D02*
X133970112Y-95489533D01*
X133970112Y-95489533D02*
X133932017Y-95451438D01*
X133932017Y-95451438D02*
X133855826Y-95413342D01*
X133855826Y-95413342D02*
X133703445Y-95375247D01*
X133703445Y-95375247D02*
X133627255Y-95337152D01*
X133627255Y-95337152D02*
X133589160Y-95299057D01*
X133589160Y-95299057D02*
X133551064Y-95222866D01*
X133551064Y-95222866D02*
X133551064Y-95146676D01*
X133551064Y-95146676D02*
X133589160Y-95070485D01*
X133589160Y-95070485D02*
X133627255Y-95032390D01*
X133627255Y-95032390D02*
X133703445Y-94994295D01*
X133703445Y-94994295D02*
X133893922Y-94994295D01*
X133893922Y-94994295D02*
X134008207Y-95032390D01*
X135836779Y-95375247D02*
X135951065Y-95413342D01*
X135951065Y-95413342D02*
X135989160Y-95451438D01*
X135989160Y-95451438D02*
X136027256Y-95527628D01*
X136027256Y-95527628D02*
X136027256Y-95641914D01*
X136027256Y-95641914D02*
X135989160Y-95718104D01*
X135989160Y-95718104D02*
X135951065Y-95756200D01*
X135951065Y-95756200D02*
X135874875Y-95794295D01*
X135874875Y-95794295D02*
X135570113Y-95794295D01*
X135570113Y-95794295D02*
X135570113Y-94994295D01*
X135570113Y-94994295D02*
X135836779Y-94994295D01*
X135836779Y-94994295D02*
X135912970Y-95032390D01*
X135912970Y-95032390D02*
X135951065Y-95070485D01*
X135951065Y-95070485D02*
X135989160Y-95146676D01*
X135989160Y-95146676D02*
X135989160Y-95222866D01*
X135989160Y-95222866D02*
X135951065Y-95299057D01*
X135951065Y-95299057D02*
X135912970Y-95337152D01*
X135912970Y-95337152D02*
X135836779Y-95375247D01*
X135836779Y-95375247D02*
X135570113Y-95375247D01*
X138617732Y-95032390D02*
X138541542Y-94994295D01*
X138541542Y-94994295D02*
X138427256Y-94994295D01*
X138427256Y-94994295D02*
X138312970Y-95032390D01*
X138312970Y-95032390D02*
X138236780Y-95108580D01*
X138236780Y-95108580D02*
X138198685Y-95184771D01*
X138198685Y-95184771D02*
X138160589Y-95337152D01*
X138160589Y-95337152D02*
X138160589Y-95451438D01*
X138160589Y-95451438D02*
X138198685Y-95603819D01*
X138198685Y-95603819D02*
X138236780Y-95680009D01*
X138236780Y-95680009D02*
X138312970Y-95756200D01*
X138312970Y-95756200D02*
X138427256Y-95794295D01*
X138427256Y-95794295D02*
X138503447Y-95794295D01*
X138503447Y-95794295D02*
X138617732Y-95756200D01*
X138617732Y-95756200D02*
X138655828Y-95718104D01*
X138655828Y-95718104D02*
X138655828Y-95451438D01*
X138655828Y-95451438D02*
X138503447Y-95451438D01*
X141284400Y-95794295D02*
X141017733Y-95413342D01*
X140827257Y-95794295D02*
X140827257Y-94994295D01*
X140827257Y-94994295D02*
X141132019Y-94994295D01*
X141132019Y-94994295D02*
X141208209Y-95032390D01*
X141208209Y-95032390D02*
X141246304Y-95070485D01*
X141246304Y-95070485D02*
X141284400Y-95146676D01*
X141284400Y-95146676D02*
X141284400Y-95260961D01*
X141284400Y-95260961D02*
X141246304Y-95337152D01*
X141246304Y-95337152D02*
X141208209Y-95375247D01*
X141208209Y-95375247D02*
X141132019Y-95413342D01*
X141132019Y-95413342D02*
X140827257Y-95413342D01*
X134174874Y-86094295D02*
X134632017Y-86094295D01*
X134403445Y-86894295D02*
X134403445Y-86094295D01*
X134784398Y-86094295D02*
X135241541Y-86094295D01*
X135012969Y-86894295D02*
X135012969Y-86094295D01*
X135889160Y-86894295D02*
X135508208Y-86894295D01*
X135508208Y-86894295D02*
X135508208Y-86094295D01*
X131194295Y-89658458D02*
X131194295Y-89506077D01*
X131194295Y-89506077D02*
X131232390Y-89429887D01*
X131232390Y-89429887D02*
X131308580Y-89353696D01*
X131308580Y-89353696D02*
X131460961Y-89315601D01*
X131460961Y-89315601D02*
X131727628Y-89315601D01*
X131727628Y-89315601D02*
X131880009Y-89353696D01*
X131880009Y-89353696D02*
X131956200Y-89429887D01*
X131956200Y-89429887D02*
X131994295Y-89506077D01*
X131994295Y-89506077D02*
X131994295Y-89658458D01*
X131994295Y-89658458D02*
X131956200Y-89734649D01*
X131956200Y-89734649D02*
X131880009Y-89810839D01*
X131880009Y-89810839D02*
X131727628Y-89848935D01*
X131727628Y-89848935D02*
X131460961Y-89848935D01*
X131460961Y-89848935D02*
X131308580Y-89810839D01*
X131308580Y-89810839D02*
X131232390Y-89734649D01*
X131232390Y-89734649D02*
X131194295Y-89658458D01*
X131994295Y-88972744D02*
X131194295Y-88972744D01*
X131194295Y-88972744D02*
X131994295Y-88515601D01*
X131994295Y-88515601D02*
X131194295Y-88515601D01*
X130970112Y-92194295D02*
X130589160Y-92194295D01*
X130589160Y-92194295D02*
X130589160Y-91394295D01*
X131236779Y-92194295D02*
X131236779Y-91394295D01*
X131236779Y-91394295D02*
X131541541Y-91394295D01*
X131541541Y-91394295D02*
X131617731Y-91432390D01*
X131617731Y-91432390D02*
X131655826Y-91470485D01*
X131655826Y-91470485D02*
X131693922Y-91546676D01*
X131693922Y-91546676D02*
X131693922Y-91660961D01*
X131693922Y-91660961D02*
X131655826Y-91737152D01*
X131655826Y-91737152D02*
X131617731Y-91775247D01*
X131617731Y-91775247D02*
X131541541Y-91813342D01*
X131541541Y-91813342D02*
X131236779Y-91813342D01*
X132303445Y-91775247D02*
X132036779Y-91775247D01*
X132036779Y-92194295D02*
X132036779Y-91394295D01*
X132036779Y-91394295D02*
X132417731Y-91394295D01*
X128194295Y-89958458D02*
X128194295Y-89806077D01*
X128194295Y-89806077D02*
X128232390Y-89729887D01*
X128232390Y-89729887D02*
X128308580Y-89653696D01*
X128308580Y-89653696D02*
X128460961Y-89615601D01*
X128460961Y-89615601D02*
X128727628Y-89615601D01*
X128727628Y-89615601D02*
X128880009Y-89653696D01*
X128880009Y-89653696D02*
X128956200Y-89729887D01*
X128956200Y-89729887D02*
X128994295Y-89806077D01*
X128994295Y-89806077D02*
X128994295Y-89958458D01*
X128994295Y-89958458D02*
X128956200Y-90034649D01*
X128956200Y-90034649D02*
X128880009Y-90110839D01*
X128880009Y-90110839D02*
X128727628Y-90148935D01*
X128727628Y-90148935D02*
X128460961Y-90148935D01*
X128460961Y-90148935D02*
X128308580Y-90110839D01*
X128308580Y-90110839D02*
X128232390Y-90034649D01*
X128232390Y-90034649D02*
X128194295Y-89958458D01*
X128575247Y-89006078D02*
X128575247Y-89272744D01*
X128994295Y-89272744D02*
X128194295Y-89272744D01*
X128194295Y-89272744D02*
X128194295Y-88891792D01*
X128575247Y-88320364D02*
X128575247Y-88587030D01*
X128994295Y-88587030D02*
X128194295Y-88587030D01*
X128194295Y-88587030D02*
X128194295Y-88206078D01*
X132444667Y-78411704D02*
X132406571Y-78449800D01*
X132406571Y-78449800D02*
X132292286Y-78487895D01*
X132292286Y-78487895D02*
X132216095Y-78487895D01*
X132216095Y-78487895D02*
X132101809Y-78449800D01*
X132101809Y-78449800D02*
X132025619Y-78373609D01*
X132025619Y-78373609D02*
X131987524Y-78297419D01*
X131987524Y-78297419D02*
X131949428Y-78145038D01*
X131949428Y-78145038D02*
X131949428Y-78030752D01*
X131949428Y-78030752D02*
X131987524Y-77878371D01*
X131987524Y-77878371D02*
X132025619Y-77802180D01*
X132025619Y-77802180D02*
X132101809Y-77725990D01*
X132101809Y-77725990D02*
X132216095Y-77687895D01*
X132216095Y-77687895D02*
X132292286Y-77687895D01*
X132292286Y-77687895D02*
X132406571Y-77725990D01*
X132406571Y-77725990D02*
X132444667Y-77764085D01*
X133206571Y-78487895D02*
X132749428Y-78487895D01*
X132978000Y-78487895D02*
X132978000Y-77687895D01*
X132978000Y-77687895D02*
X132901809Y-77802180D01*
X132901809Y-77802180D02*
X132825619Y-77878371D01*
X132825619Y-77878371D02*
X132749428Y-77916466D01*
X135591467Y-80943095D02*
X135324800Y-80562142D01*
X135134324Y-80943095D02*
X135134324Y-80143095D01*
X135134324Y-80143095D02*
X135439086Y-80143095D01*
X135439086Y-80143095D02*
X135515276Y-80181190D01*
X135515276Y-80181190D02*
X135553371Y-80219285D01*
X135553371Y-80219285D02*
X135591467Y-80295476D01*
X135591467Y-80295476D02*
X135591467Y-80409761D01*
X135591467Y-80409761D02*
X135553371Y-80485952D01*
X135553371Y-80485952D02*
X135515276Y-80524047D01*
X135515276Y-80524047D02*
X135439086Y-80562142D01*
X135439086Y-80562142D02*
X135134324Y-80562142D01*
X136315276Y-80143095D02*
X135934324Y-80143095D01*
X135934324Y-80143095D02*
X135896228Y-80524047D01*
X135896228Y-80524047D02*
X135934324Y-80485952D01*
X135934324Y-80485952D02*
X136010514Y-80447857D01*
X136010514Y-80447857D02*
X136200990Y-80447857D01*
X136200990Y-80447857D02*
X136277181Y-80485952D01*
X136277181Y-80485952D02*
X136315276Y-80524047D01*
X136315276Y-80524047D02*
X136353371Y-80600238D01*
X136353371Y-80600238D02*
X136353371Y-80790714D01*
X136353371Y-80790714D02*
X136315276Y-80866904D01*
X136315276Y-80866904D02*
X136277181Y-80905000D01*
X136277181Y-80905000D02*
X136200990Y-80943095D01*
X136200990Y-80943095D02*
X136010514Y-80943095D01*
X136010514Y-80943095D02*
X135934324Y-80905000D01*
X135934324Y-80905000D02*
X135896228Y-80866904D01*
X131162295Y-84233332D02*
X130781342Y-84499999D01*
X131162295Y-84690475D02*
X130362295Y-84690475D01*
X130362295Y-84690475D02*
X130362295Y-84385713D01*
X130362295Y-84385713D02*
X130400390Y-84309523D01*
X130400390Y-84309523D02*
X130438485Y-84271428D01*
X130438485Y-84271428D02*
X130514676Y-84233332D01*
X130514676Y-84233332D02*
X130628961Y-84233332D01*
X130628961Y-84233332D02*
X130705152Y-84271428D01*
X130705152Y-84271428D02*
X130743247Y-84309523D01*
X130743247Y-84309523D02*
X130781342Y-84385713D01*
X130781342Y-84385713D02*
X130781342Y-84690475D01*
X130628961Y-83547618D02*
X131162295Y-83547618D01*
X130324200Y-83738094D02*
X130895628Y-83928571D01*
X130895628Y-83928571D02*
X130895628Y-83433332D01*
X135866667Y-90662295D02*
X135600000Y-90281342D01*
X135409524Y-90662295D02*
X135409524Y-89862295D01*
X135409524Y-89862295D02*
X135714286Y-89862295D01*
X135714286Y-89862295D02*
X135790476Y-89900390D01*
X135790476Y-89900390D02*
X135828571Y-89938485D01*
X135828571Y-89938485D02*
X135866667Y-90014676D01*
X135866667Y-90014676D02*
X135866667Y-90128961D01*
X135866667Y-90128961D02*
X135828571Y-90205152D01*
X135828571Y-90205152D02*
X135790476Y-90243247D01*
X135790476Y-90243247D02*
X135714286Y-90281342D01*
X135714286Y-90281342D02*
X135409524Y-90281342D01*
X136133333Y-89862295D02*
X136628571Y-89862295D01*
X136628571Y-89862295D02*
X136361905Y-90167057D01*
X136361905Y-90167057D02*
X136476190Y-90167057D01*
X136476190Y-90167057D02*
X136552381Y-90205152D01*
X136552381Y-90205152D02*
X136590476Y-90243247D01*
X136590476Y-90243247D02*
X136628571Y-90319438D01*
X136628571Y-90319438D02*
X136628571Y-90509914D01*
X136628571Y-90509914D02*
X136590476Y-90586104D01*
X136590476Y-90586104D02*
X136552381Y-90624200D01*
X136552381Y-90624200D02*
X136476190Y-90662295D01*
X136476190Y-90662295D02*
X136247619Y-90662295D01*
X136247619Y-90662295D02*
X136171428Y-90624200D01*
X136171428Y-90624200D02*
X136133333Y-90586104D01*
X137866667Y-90562295D02*
X137600000Y-90181342D01*
X137409524Y-90562295D02*
X137409524Y-89762295D01*
X137409524Y-89762295D02*
X137714286Y-89762295D01*
X137714286Y-89762295D02*
X137790476Y-89800390D01*
X137790476Y-89800390D02*
X137828571Y-89838485D01*
X137828571Y-89838485D02*
X137866667Y-89914676D01*
X137866667Y-89914676D02*
X137866667Y-90028961D01*
X137866667Y-90028961D02*
X137828571Y-90105152D01*
X137828571Y-90105152D02*
X137790476Y-90143247D01*
X137790476Y-90143247D02*
X137714286Y-90181342D01*
X137714286Y-90181342D02*
X137409524Y-90181342D01*
X138171428Y-89838485D02*
X138209524Y-89800390D01*
X138209524Y-89800390D02*
X138285714Y-89762295D01*
X138285714Y-89762295D02*
X138476190Y-89762295D01*
X138476190Y-89762295D02*
X138552381Y-89800390D01*
X138552381Y-89800390D02*
X138590476Y-89838485D01*
X138590476Y-89838485D02*
X138628571Y-89914676D01*
X138628571Y-89914676D02*
X138628571Y-89990866D01*
X138628571Y-89990866D02*
X138590476Y-90105152D01*
X138590476Y-90105152D02*
X138133333Y-90562295D01*
X138133333Y-90562295D02*
X138628571Y-90562295D01*
X139266667Y-80962295D02*
X139000000Y-80581342D01*
X138809524Y-80962295D02*
X138809524Y-80162295D01*
X138809524Y-80162295D02*
X139114286Y-80162295D01*
X139114286Y-80162295D02*
X139190476Y-80200390D01*
X139190476Y-80200390D02*
X139228571Y-80238485D01*
X139228571Y-80238485D02*
X139266667Y-80314676D01*
X139266667Y-80314676D02*
X139266667Y-80428961D01*
X139266667Y-80428961D02*
X139228571Y-80505152D01*
X139228571Y-80505152D02*
X139190476Y-80543247D01*
X139190476Y-80543247D02*
X139114286Y-80581342D01*
X139114286Y-80581342D02*
X138809524Y-80581342D01*
X139533333Y-80162295D02*
X140066667Y-80162295D01*
X140066667Y-80162295D02*
X139723809Y-80962295D01*
X140840267Y-80943095D02*
X140573600Y-80562142D01*
X140383124Y-80943095D02*
X140383124Y-80143095D01*
X140383124Y-80143095D02*
X140687886Y-80143095D01*
X140687886Y-80143095D02*
X140764076Y-80181190D01*
X140764076Y-80181190D02*
X140802171Y-80219285D01*
X140802171Y-80219285D02*
X140840267Y-80295476D01*
X140840267Y-80295476D02*
X140840267Y-80409761D01*
X140840267Y-80409761D02*
X140802171Y-80485952D01*
X140802171Y-80485952D02*
X140764076Y-80524047D01*
X140764076Y-80524047D02*
X140687886Y-80562142D01*
X140687886Y-80562142D02*
X140383124Y-80562142D01*
X141297409Y-80485952D02*
X141221219Y-80447857D01*
X141221219Y-80447857D02*
X141183124Y-80409761D01*
X141183124Y-80409761D02*
X141145028Y-80333571D01*
X141145028Y-80333571D02*
X141145028Y-80295476D01*
X141145028Y-80295476D02*
X141183124Y-80219285D01*
X141183124Y-80219285D02*
X141221219Y-80181190D01*
X141221219Y-80181190D02*
X141297409Y-80143095D01*
X141297409Y-80143095D02*
X141449790Y-80143095D01*
X141449790Y-80143095D02*
X141525981Y-80181190D01*
X141525981Y-80181190D02*
X141564076Y-80219285D01*
X141564076Y-80219285D02*
X141602171Y-80295476D01*
X141602171Y-80295476D02*
X141602171Y-80333571D01*
X141602171Y-80333571D02*
X141564076Y-80409761D01*
X141564076Y-80409761D02*
X141525981Y-80447857D01*
X141525981Y-80447857D02*
X141449790Y-80485952D01*
X141449790Y-80485952D02*
X141297409Y-80485952D01*
X141297409Y-80485952D02*
X141221219Y-80524047D01*
X141221219Y-80524047D02*
X141183124Y-80562142D01*
X141183124Y-80562142D02*
X141145028Y-80638333D01*
X141145028Y-80638333D02*
X141145028Y-80790714D01*
X141145028Y-80790714D02*
X141183124Y-80866904D01*
X141183124Y-80866904D02*
X141221219Y-80905000D01*
X141221219Y-80905000D02*
X141297409Y-80943095D01*
X141297409Y-80943095D02*
X141449790Y-80943095D01*
X141449790Y-80943095D02*
X141525981Y-80905000D01*
X141525981Y-80905000D02*
X141564076Y-80866904D01*
X141564076Y-80866904D02*
X141602171Y-80790714D01*
X141602171Y-80790714D02*
X141602171Y-80638333D01*
X141602171Y-80638333D02*
X141564076Y-80562142D01*
X141564076Y-80562142D02*
X141525981Y-80524047D01*
X141525981Y-80524047D02*
X141449790Y-80485952D01*
X140266667Y-90562295D02*
X140000000Y-90181342D01*
X139809524Y-90562295D02*
X139809524Y-89762295D01*
X139809524Y-89762295D02*
X140114286Y-89762295D01*
X140114286Y-89762295D02*
X140190476Y-89800390D01*
X140190476Y-89800390D02*
X140228571Y-89838485D01*
X140228571Y-89838485D02*
X140266667Y-89914676D01*
X140266667Y-89914676D02*
X140266667Y-90028961D01*
X140266667Y-90028961D02*
X140228571Y-90105152D01*
X140228571Y-90105152D02*
X140190476Y-90143247D01*
X140190476Y-90143247D02*
X140114286Y-90181342D01*
X140114286Y-90181342D02*
X139809524Y-90181342D01*
X141028571Y-90562295D02*
X140571428Y-90562295D01*
X140800000Y-90562295D02*
X140800000Y-89762295D01*
X140800000Y-89762295D02*
X140723809Y-89876580D01*
X140723809Y-89876580D02*
X140647619Y-89952771D01*
X140647619Y-89952771D02*
X140571428Y-89990866D01*
X137490267Y-80978695D02*
X137223600Y-80597742D01*
X137033124Y-80978695D02*
X137033124Y-80178695D01*
X137033124Y-80178695D02*
X137337886Y-80178695D01*
X137337886Y-80178695D02*
X137414076Y-80216790D01*
X137414076Y-80216790D02*
X137452171Y-80254885D01*
X137452171Y-80254885D02*
X137490267Y-80331076D01*
X137490267Y-80331076D02*
X137490267Y-80445361D01*
X137490267Y-80445361D02*
X137452171Y-80521552D01*
X137452171Y-80521552D02*
X137414076Y-80559647D01*
X137414076Y-80559647D02*
X137337886Y-80597742D01*
X137337886Y-80597742D02*
X137033124Y-80597742D01*
X138175981Y-80178695D02*
X138023600Y-80178695D01*
X138023600Y-80178695D02*
X137947409Y-80216790D01*
X137947409Y-80216790D02*
X137909314Y-80254885D01*
X137909314Y-80254885D02*
X137833124Y-80369171D01*
X137833124Y-80369171D02*
X137795028Y-80521552D01*
X137795028Y-80521552D02*
X137795028Y-80826314D01*
X137795028Y-80826314D02*
X137833124Y-80902504D01*
X137833124Y-80902504D02*
X137871219Y-80940600D01*
X137871219Y-80940600D02*
X137947409Y-80978695D01*
X137947409Y-80978695D02*
X138099790Y-80978695D01*
X138099790Y-80978695D02*
X138175981Y-80940600D01*
X138175981Y-80940600D02*
X138214076Y-80902504D01*
X138214076Y-80902504D02*
X138252171Y-80826314D01*
X138252171Y-80826314D02*
X138252171Y-80635838D01*
X138252171Y-80635838D02*
X138214076Y-80559647D01*
X138214076Y-80559647D02*
X138175981Y-80521552D01*
X138175981Y-80521552D02*
X138099790Y-80483457D01*
X138099790Y-80483457D02*
X137947409Y-80483457D01*
X137947409Y-80483457D02*
X137871219Y-80521552D01*
X137871219Y-80521552D02*
X137833124Y-80559647D01*
X137833124Y-80559647D02*
X137795028Y-80635838D01*
X132366667Y-86786104D02*
X132328571Y-86824200D01*
X132328571Y-86824200D02*
X132214286Y-86862295D01*
X132214286Y-86862295D02*
X132138095Y-86862295D01*
X132138095Y-86862295D02*
X132023809Y-86824200D01*
X132023809Y-86824200D02*
X131947619Y-86748009D01*
X131947619Y-86748009D02*
X131909524Y-86671819D01*
X131909524Y-86671819D02*
X131871428Y-86519438D01*
X131871428Y-86519438D02*
X131871428Y-86405152D01*
X131871428Y-86405152D02*
X131909524Y-86252771D01*
X131909524Y-86252771D02*
X131947619Y-86176580D01*
X131947619Y-86176580D02*
X132023809Y-86100390D01*
X132023809Y-86100390D02*
X132138095Y-86062295D01*
X132138095Y-86062295D02*
X132214286Y-86062295D01*
X132214286Y-86062295D02*
X132328571Y-86100390D01*
X132328571Y-86100390D02*
X132366667Y-86138485D01*
X132671428Y-86138485D02*
X132709524Y-86100390D01*
X132709524Y-86100390D02*
X132785714Y-86062295D01*
X132785714Y-86062295D02*
X132976190Y-86062295D01*
X132976190Y-86062295D02*
X133052381Y-86100390D01*
X133052381Y-86100390D02*
X133090476Y-86138485D01*
X133090476Y-86138485D02*
X133128571Y-86214676D01*
X133128571Y-86214676D02*
X133128571Y-86290866D01*
X133128571Y-86290866D02*
X133090476Y-86405152D01*
X133090476Y-86405152D02*
X132633333Y-86862295D01*
X132633333Y-86862295D02*
X133128571Y-86862295D01*
D11*
%TO.C,C1*%
X131565000Y-80711252D02*
X131565000Y-80188748D01*
X133035000Y-80711252D02*
X133035000Y-80188748D01*
%TO.C,U1*%
X136836000Y-85344000D02*
X136836000Y-88944000D01*
X136836000Y-85344000D02*
X136836000Y-83144000D01*
X142056000Y-85344000D02*
X142056000Y-87544000D01*
X142056000Y-85344000D02*
X142056000Y-83144000D01*
%TO.C,R5*%
X136235000Y-78238748D02*
X136235000Y-78761252D01*
X134765000Y-78238748D02*
X134765000Y-78761252D01*
%TO.C,R4*%
X128565000Y-84361252D02*
X128565000Y-83838748D01*
X130035000Y-84361252D02*
X130035000Y-83838748D01*
%TO.C,R3*%
X135265000Y-92761252D02*
X135265000Y-92238748D01*
X136735000Y-92761252D02*
X136735000Y-92238748D01*
%TO.C,J1*%
X132090000Y-98805000D02*
X132090000Y-97475000D01*
X133420000Y-98805000D02*
X132090000Y-98805000D01*
X134690000Y-98805000D02*
X142370000Y-98805000D01*
X134690000Y-98805000D02*
X134690000Y-96145000D01*
X142370000Y-98805000D02*
X142370000Y-96145000D01*
X134690000Y-96145000D02*
X142370000Y-96145000D01*
%TO.C,R2*%
X137265000Y-92761252D02*
X137265000Y-92238748D01*
X138735000Y-92761252D02*
X138735000Y-92238748D01*
%TO.C,R7*%
X140235000Y-78188748D02*
X140235000Y-78711252D01*
X138765000Y-78188748D02*
X138765000Y-78711252D01*
%TO.C,R8*%
X142235000Y-78238748D02*
X142235000Y-78761252D01*
X140765000Y-78238748D02*
X140765000Y-78761252D01*
%TO.C,R1*%
X139765000Y-92761252D02*
X139765000Y-92238748D01*
X141235000Y-92761252D02*
X141235000Y-92238748D01*
%TO.C,R6*%
X138235000Y-78238748D02*
X138235000Y-78761252D01*
X136765000Y-78238748D02*
X136765000Y-78761252D01*
%TO.C,JP3*%
X134000000Y-85400000D02*
X134000000Y-82600000D01*
X136000000Y-85400000D02*
X134000000Y-85400000D01*
X134000000Y-82600000D02*
X136000000Y-82600000D01*
X136000000Y-82600000D02*
X136000000Y-85400000D01*
%TO.C,C2*%
X132992800Y-83863548D02*
X132992800Y-84386052D01*
X131522800Y-83863548D02*
X131522800Y-84386052D01*
%TD*%
M02*
