M48
; DRILL file {KiCad 7.0.7} date Sun Sep  3 00:48:07 2023
; FORMAT={-:-/ absolute / inch / decimal}
; #@! TF.CreationDate,2023-09-03T00:48:07-05:00
; #@! TF.GenerationSoftware,Kicad,Pcbnew,7.0.7
; #@! TF.FileFunction,Plated,1,2,PTH
FMAT,2
INCH
; #@! TA.AperFunction,Plated,PTH,ViaDrill
T1C0.0157
; #@! TA.AperFunction,Plated,PTH,ComponentDrill
T2C0.0394
%
G90
G05
T1
X5.207Y-3.2746
X5.3543Y-3.6791
X5.3976Y-3.378
X5.4331Y-3.6791
X5.4882Y-3.3071
X5.5157Y-3.3819
X5.5315Y-3.6791
X5.5906Y-3.622
T2
X5.064Y-2.7902
X5.064Y-2.8902
X5.164Y-2.7902
X5.164Y-2.8902
X5.264Y-2.7902
X5.264Y-2.8902
X5.364Y-2.7902
X5.364Y-2.8902
X5.464Y-2.7902
X5.464Y-2.8902
X5.564Y-2.7902
X5.564Y-2.8902
T0
M30
