%TF.GenerationSoftware,KiCad,Pcbnew,7.0.7*%
%TF.CreationDate,2023-09-01T15:10:47-05:00*%
%TF.ProjectId,SNES_RGB_BYPASS_AMP,534e4553-5f52-4474-925f-425950415353,rev?*%
%TF.SameCoordinates,Original*%
%TF.FileFunction,Legend,Top*%
%TF.FilePolarity,Positive*%
%FSLAX46Y46*%
G04 Gerber Fmt 4.6, Leading zero omitted, Abs format (unit mm)*
G04 Created by KiCad (PCBNEW 7.0.7) date 2023-09-01 15:10:47*
%MOMM*%
%LPD*%
G01*
G04 APERTURE LIST*
%ADD10C,0.150000*%
%ADD11C,0.120000*%
G04 APERTURE END LIST*
D10*
X133246303Y-96318104D02*
X133208207Y-96356200D01*
X133208207Y-96356200D02*
X133093922Y-96394295D01*
X133093922Y-96394295D02*
X133017731Y-96394295D01*
X133017731Y-96394295D02*
X132903445Y-96356200D01*
X132903445Y-96356200D02*
X132827255Y-96280009D01*
X132827255Y-96280009D02*
X132789160Y-96203819D01*
X132789160Y-96203819D02*
X132751064Y-96051438D01*
X132751064Y-96051438D02*
X132751064Y-95937152D01*
X132751064Y-95937152D02*
X132789160Y-95784771D01*
X132789160Y-95784771D02*
X132827255Y-95708580D01*
X132827255Y-95708580D02*
X132903445Y-95632390D01*
X132903445Y-95632390D02*
X133017731Y-95594295D01*
X133017731Y-95594295D02*
X133093922Y-95594295D01*
X133093922Y-95594295D02*
X133208207Y-95632390D01*
X133208207Y-95632390D02*
X133246303Y-95670485D01*
X133551064Y-96356200D02*
X133665350Y-96394295D01*
X133665350Y-96394295D02*
X133855826Y-96394295D01*
X133855826Y-96394295D02*
X133932017Y-96356200D01*
X133932017Y-96356200D02*
X133970112Y-96318104D01*
X133970112Y-96318104D02*
X134008207Y-96241914D01*
X134008207Y-96241914D02*
X134008207Y-96165723D01*
X134008207Y-96165723D02*
X133970112Y-96089533D01*
X133970112Y-96089533D02*
X133932017Y-96051438D01*
X133932017Y-96051438D02*
X133855826Y-96013342D01*
X133855826Y-96013342D02*
X133703445Y-95975247D01*
X133703445Y-95975247D02*
X133627255Y-95937152D01*
X133627255Y-95937152D02*
X133589160Y-95899057D01*
X133589160Y-95899057D02*
X133551064Y-95822866D01*
X133551064Y-95822866D02*
X133551064Y-95746676D01*
X133551064Y-95746676D02*
X133589160Y-95670485D01*
X133589160Y-95670485D02*
X133627255Y-95632390D01*
X133627255Y-95632390D02*
X133703445Y-95594295D01*
X133703445Y-95594295D02*
X133893922Y-95594295D01*
X133893922Y-95594295D02*
X134008207Y-95632390D01*
X136027256Y-96394295D02*
X135760589Y-96013342D01*
X135570113Y-96394295D02*
X135570113Y-95594295D01*
X135570113Y-95594295D02*
X135874875Y-95594295D01*
X135874875Y-95594295D02*
X135951065Y-95632390D01*
X135951065Y-95632390D02*
X135989160Y-95670485D01*
X135989160Y-95670485D02*
X136027256Y-95746676D01*
X136027256Y-95746676D02*
X136027256Y-95860961D01*
X136027256Y-95860961D02*
X135989160Y-95937152D01*
X135989160Y-95937152D02*
X135951065Y-95975247D01*
X135951065Y-95975247D02*
X135874875Y-96013342D01*
X135874875Y-96013342D02*
X135570113Y-96013342D01*
X138617732Y-95632390D02*
X138541542Y-95594295D01*
X138541542Y-95594295D02*
X138427256Y-95594295D01*
X138427256Y-95594295D02*
X138312970Y-95632390D01*
X138312970Y-95632390D02*
X138236780Y-95708580D01*
X138236780Y-95708580D02*
X138198685Y-95784771D01*
X138198685Y-95784771D02*
X138160589Y-95937152D01*
X138160589Y-95937152D02*
X138160589Y-96051438D01*
X138160589Y-96051438D02*
X138198685Y-96203819D01*
X138198685Y-96203819D02*
X138236780Y-96280009D01*
X138236780Y-96280009D02*
X138312970Y-96356200D01*
X138312970Y-96356200D02*
X138427256Y-96394295D01*
X138427256Y-96394295D02*
X138503447Y-96394295D01*
X138503447Y-96394295D02*
X138617732Y-96356200D01*
X138617732Y-96356200D02*
X138655828Y-96318104D01*
X138655828Y-96318104D02*
X138655828Y-96051438D01*
X138655828Y-96051438D02*
X138503447Y-96051438D01*
X141093923Y-95975247D02*
X141208209Y-96013342D01*
X141208209Y-96013342D02*
X141246304Y-96051438D01*
X141246304Y-96051438D02*
X141284400Y-96127628D01*
X141284400Y-96127628D02*
X141284400Y-96241914D01*
X141284400Y-96241914D02*
X141246304Y-96318104D01*
X141246304Y-96318104D02*
X141208209Y-96356200D01*
X141208209Y-96356200D02*
X141132019Y-96394295D01*
X141132019Y-96394295D02*
X140827257Y-96394295D01*
X140827257Y-96394295D02*
X140827257Y-95594295D01*
X140827257Y-95594295D02*
X141093923Y-95594295D01*
X141093923Y-95594295D02*
X141170114Y-95632390D01*
X141170114Y-95632390D02*
X141208209Y-95670485D01*
X141208209Y-95670485D02*
X141246304Y-95746676D01*
X141246304Y-95746676D02*
X141246304Y-95822866D01*
X141246304Y-95822866D02*
X141208209Y-95899057D01*
X141208209Y-95899057D02*
X141170114Y-95937152D01*
X141170114Y-95937152D02*
X141093923Y-95975247D01*
X141093923Y-95975247D02*
X140827257Y-95975247D01*
X131500000Y-88500000D02*
X131500000Y-95000000D01*
X134174874Y-86094295D02*
X134632017Y-86094295D01*
X134403445Y-86894295D02*
X134403445Y-86094295D01*
X134784398Y-86094295D02*
X135241541Y-86094295D01*
X135012969Y-86894295D02*
X135012969Y-86094295D01*
X135889160Y-86894295D02*
X135508208Y-86894295D01*
X135508208Y-86894295D02*
X135508208Y-86094295D01*
X128094295Y-90558458D02*
X128094295Y-90406077D01*
X128094295Y-90406077D02*
X128132390Y-90329887D01*
X128132390Y-90329887D02*
X128208580Y-90253696D01*
X128208580Y-90253696D02*
X128360961Y-90215601D01*
X128360961Y-90215601D02*
X128627628Y-90215601D01*
X128627628Y-90215601D02*
X128780009Y-90253696D01*
X128780009Y-90253696D02*
X128856200Y-90329887D01*
X128856200Y-90329887D02*
X128894295Y-90406077D01*
X128894295Y-90406077D02*
X128894295Y-90558458D01*
X128894295Y-90558458D02*
X128856200Y-90634649D01*
X128856200Y-90634649D02*
X128780009Y-90710839D01*
X128780009Y-90710839D02*
X128627628Y-90748935D01*
X128627628Y-90748935D02*
X128360961Y-90748935D01*
X128360961Y-90748935D02*
X128208580Y-90710839D01*
X128208580Y-90710839D02*
X128132390Y-90634649D01*
X128132390Y-90634649D02*
X128094295Y-90558458D01*
X128894295Y-89872744D02*
X128094295Y-89872744D01*
X128094295Y-89872744D02*
X128894295Y-89415601D01*
X128894295Y-89415601D02*
X128094295Y-89415601D01*
X132894295Y-92329887D02*
X132894295Y-92710839D01*
X132894295Y-92710839D02*
X132094295Y-92710839D01*
X132894295Y-92063220D02*
X132094295Y-92063220D01*
X132094295Y-92063220D02*
X132094295Y-91758458D01*
X132094295Y-91758458D02*
X132132390Y-91682268D01*
X132132390Y-91682268D02*
X132170485Y-91644173D01*
X132170485Y-91644173D02*
X132246676Y-91606077D01*
X132246676Y-91606077D02*
X132360961Y-91606077D01*
X132360961Y-91606077D02*
X132437152Y-91644173D01*
X132437152Y-91644173D02*
X132475247Y-91682268D01*
X132475247Y-91682268D02*
X132513342Y-91758458D01*
X132513342Y-91758458D02*
X132513342Y-92063220D01*
X132475247Y-90996554D02*
X132475247Y-91263220D01*
X132894295Y-91263220D02*
X132094295Y-91263220D01*
X132094295Y-91263220D02*
X132094295Y-90882268D01*
X128094295Y-94058458D02*
X128094295Y-93906077D01*
X128094295Y-93906077D02*
X128132390Y-93829887D01*
X128132390Y-93829887D02*
X128208580Y-93753696D01*
X128208580Y-93753696D02*
X128360961Y-93715601D01*
X128360961Y-93715601D02*
X128627628Y-93715601D01*
X128627628Y-93715601D02*
X128780009Y-93753696D01*
X128780009Y-93753696D02*
X128856200Y-93829887D01*
X128856200Y-93829887D02*
X128894295Y-93906077D01*
X128894295Y-93906077D02*
X128894295Y-94058458D01*
X128894295Y-94058458D02*
X128856200Y-94134649D01*
X128856200Y-94134649D02*
X128780009Y-94210839D01*
X128780009Y-94210839D02*
X128627628Y-94248935D01*
X128627628Y-94248935D02*
X128360961Y-94248935D01*
X128360961Y-94248935D02*
X128208580Y-94210839D01*
X128208580Y-94210839D02*
X128132390Y-94134649D01*
X128132390Y-94134649D02*
X128094295Y-94058458D01*
X128475247Y-93106078D02*
X128475247Y-93372744D01*
X128894295Y-93372744D02*
X128094295Y-93372744D01*
X128094295Y-93372744D02*
X128094295Y-92991792D01*
X128475247Y-92420364D02*
X128475247Y-92687030D01*
X128894295Y-92687030D02*
X128094295Y-92687030D01*
X128094295Y-92687030D02*
X128094295Y-92306078D01*
X128366667Y-86786104D02*
X128328571Y-86824200D01*
X128328571Y-86824200D02*
X128214286Y-86862295D01*
X128214286Y-86862295D02*
X128138095Y-86862295D01*
X128138095Y-86862295D02*
X128023809Y-86824200D01*
X128023809Y-86824200D02*
X127947619Y-86748009D01*
X127947619Y-86748009D02*
X127909524Y-86671819D01*
X127909524Y-86671819D02*
X127871428Y-86519438D01*
X127871428Y-86519438D02*
X127871428Y-86405152D01*
X127871428Y-86405152D02*
X127909524Y-86252771D01*
X127909524Y-86252771D02*
X127947619Y-86176580D01*
X127947619Y-86176580D02*
X128023809Y-86100390D01*
X128023809Y-86100390D02*
X128138095Y-86062295D01*
X128138095Y-86062295D02*
X128214286Y-86062295D01*
X128214286Y-86062295D02*
X128328571Y-86100390D01*
X128328571Y-86100390D02*
X128366667Y-86138485D01*
X129128571Y-86862295D02*
X128671428Y-86862295D01*
X128900000Y-86862295D02*
X128900000Y-86062295D01*
X128900000Y-86062295D02*
X128823809Y-86176580D01*
X128823809Y-86176580D02*
X128747619Y-86252771D01*
X128747619Y-86252771D02*
X128671428Y-86290866D01*
X131866667Y-79862295D02*
X131600000Y-79481342D01*
X131409524Y-79862295D02*
X131409524Y-79062295D01*
X131409524Y-79062295D02*
X131714286Y-79062295D01*
X131714286Y-79062295D02*
X131790476Y-79100390D01*
X131790476Y-79100390D02*
X131828571Y-79138485D01*
X131828571Y-79138485D02*
X131866667Y-79214676D01*
X131866667Y-79214676D02*
X131866667Y-79328961D01*
X131866667Y-79328961D02*
X131828571Y-79405152D01*
X131828571Y-79405152D02*
X131790476Y-79443247D01*
X131790476Y-79443247D02*
X131714286Y-79481342D01*
X131714286Y-79481342D02*
X131409524Y-79481342D01*
X132590476Y-79062295D02*
X132209524Y-79062295D01*
X132209524Y-79062295D02*
X132171428Y-79443247D01*
X132171428Y-79443247D02*
X132209524Y-79405152D01*
X132209524Y-79405152D02*
X132285714Y-79367057D01*
X132285714Y-79367057D02*
X132476190Y-79367057D01*
X132476190Y-79367057D02*
X132552381Y-79405152D01*
X132552381Y-79405152D02*
X132590476Y-79443247D01*
X132590476Y-79443247D02*
X132628571Y-79519438D01*
X132628571Y-79519438D02*
X132628571Y-79709914D01*
X132628571Y-79709914D02*
X132590476Y-79786104D01*
X132590476Y-79786104D02*
X132552381Y-79824200D01*
X132552381Y-79824200D02*
X132476190Y-79862295D01*
X132476190Y-79862295D02*
X132285714Y-79862295D01*
X132285714Y-79862295D02*
X132209524Y-79824200D01*
X132209524Y-79824200D02*
X132171428Y-79786104D01*
X128862295Y-97133332D02*
X128481342Y-97399999D01*
X128862295Y-97590475D02*
X128062295Y-97590475D01*
X128062295Y-97590475D02*
X128062295Y-97285713D01*
X128062295Y-97285713D02*
X128100390Y-97209523D01*
X128100390Y-97209523D02*
X128138485Y-97171428D01*
X128138485Y-97171428D02*
X128214676Y-97133332D01*
X128214676Y-97133332D02*
X128328961Y-97133332D01*
X128328961Y-97133332D02*
X128405152Y-97171428D01*
X128405152Y-97171428D02*
X128443247Y-97209523D01*
X128443247Y-97209523D02*
X128481342Y-97285713D01*
X128481342Y-97285713D02*
X128481342Y-97590475D01*
X128328961Y-96447618D02*
X128862295Y-96447618D01*
X128024200Y-96638094D02*
X128595628Y-96828571D01*
X128595628Y-96828571D02*
X128595628Y-96333332D01*
X135866667Y-95362295D02*
X135600000Y-94981342D01*
X135409524Y-95362295D02*
X135409524Y-94562295D01*
X135409524Y-94562295D02*
X135714286Y-94562295D01*
X135714286Y-94562295D02*
X135790476Y-94600390D01*
X135790476Y-94600390D02*
X135828571Y-94638485D01*
X135828571Y-94638485D02*
X135866667Y-94714676D01*
X135866667Y-94714676D02*
X135866667Y-94828961D01*
X135866667Y-94828961D02*
X135828571Y-94905152D01*
X135828571Y-94905152D02*
X135790476Y-94943247D01*
X135790476Y-94943247D02*
X135714286Y-94981342D01*
X135714286Y-94981342D02*
X135409524Y-94981342D01*
X136133333Y-94562295D02*
X136628571Y-94562295D01*
X136628571Y-94562295D02*
X136361905Y-94867057D01*
X136361905Y-94867057D02*
X136476190Y-94867057D01*
X136476190Y-94867057D02*
X136552381Y-94905152D01*
X136552381Y-94905152D02*
X136590476Y-94943247D01*
X136590476Y-94943247D02*
X136628571Y-95019438D01*
X136628571Y-95019438D02*
X136628571Y-95209914D01*
X136628571Y-95209914D02*
X136590476Y-95286104D01*
X136590476Y-95286104D02*
X136552381Y-95324200D01*
X136552381Y-95324200D02*
X136476190Y-95362295D01*
X136476190Y-95362295D02*
X136247619Y-95362295D01*
X136247619Y-95362295D02*
X136171428Y-95324200D01*
X136171428Y-95324200D02*
X136133333Y-95286104D01*
X137866667Y-95362295D02*
X137600000Y-94981342D01*
X137409524Y-95362295D02*
X137409524Y-94562295D01*
X137409524Y-94562295D02*
X137714286Y-94562295D01*
X137714286Y-94562295D02*
X137790476Y-94600390D01*
X137790476Y-94600390D02*
X137828571Y-94638485D01*
X137828571Y-94638485D02*
X137866667Y-94714676D01*
X137866667Y-94714676D02*
X137866667Y-94828961D01*
X137866667Y-94828961D02*
X137828571Y-94905152D01*
X137828571Y-94905152D02*
X137790476Y-94943247D01*
X137790476Y-94943247D02*
X137714286Y-94981342D01*
X137714286Y-94981342D02*
X137409524Y-94981342D01*
X138171428Y-94638485D02*
X138209524Y-94600390D01*
X138209524Y-94600390D02*
X138285714Y-94562295D01*
X138285714Y-94562295D02*
X138476190Y-94562295D01*
X138476190Y-94562295D02*
X138552381Y-94600390D01*
X138552381Y-94600390D02*
X138590476Y-94638485D01*
X138590476Y-94638485D02*
X138628571Y-94714676D01*
X138628571Y-94714676D02*
X138628571Y-94790866D01*
X138628571Y-94790866D02*
X138590476Y-94905152D01*
X138590476Y-94905152D02*
X138133333Y-95362295D01*
X138133333Y-95362295D02*
X138628571Y-95362295D01*
X138366667Y-79862295D02*
X138100000Y-79481342D01*
X137909524Y-79862295D02*
X137909524Y-79062295D01*
X137909524Y-79062295D02*
X138214286Y-79062295D01*
X138214286Y-79062295D02*
X138290476Y-79100390D01*
X138290476Y-79100390D02*
X138328571Y-79138485D01*
X138328571Y-79138485D02*
X138366667Y-79214676D01*
X138366667Y-79214676D02*
X138366667Y-79328961D01*
X138366667Y-79328961D02*
X138328571Y-79405152D01*
X138328571Y-79405152D02*
X138290476Y-79443247D01*
X138290476Y-79443247D02*
X138214286Y-79481342D01*
X138214286Y-79481342D02*
X137909524Y-79481342D01*
X138633333Y-79062295D02*
X139166667Y-79062295D01*
X139166667Y-79062295D02*
X138823809Y-79862295D01*
X134366667Y-79862295D02*
X134100000Y-79481342D01*
X133909524Y-79862295D02*
X133909524Y-79062295D01*
X133909524Y-79062295D02*
X134214286Y-79062295D01*
X134214286Y-79062295D02*
X134290476Y-79100390D01*
X134290476Y-79100390D02*
X134328571Y-79138485D01*
X134328571Y-79138485D02*
X134366667Y-79214676D01*
X134366667Y-79214676D02*
X134366667Y-79328961D01*
X134366667Y-79328961D02*
X134328571Y-79405152D01*
X134328571Y-79405152D02*
X134290476Y-79443247D01*
X134290476Y-79443247D02*
X134214286Y-79481342D01*
X134214286Y-79481342D02*
X133909524Y-79481342D01*
X134823809Y-79405152D02*
X134747619Y-79367057D01*
X134747619Y-79367057D02*
X134709524Y-79328961D01*
X134709524Y-79328961D02*
X134671428Y-79252771D01*
X134671428Y-79252771D02*
X134671428Y-79214676D01*
X134671428Y-79214676D02*
X134709524Y-79138485D01*
X134709524Y-79138485D02*
X134747619Y-79100390D01*
X134747619Y-79100390D02*
X134823809Y-79062295D01*
X134823809Y-79062295D02*
X134976190Y-79062295D01*
X134976190Y-79062295D02*
X135052381Y-79100390D01*
X135052381Y-79100390D02*
X135090476Y-79138485D01*
X135090476Y-79138485D02*
X135128571Y-79214676D01*
X135128571Y-79214676D02*
X135128571Y-79252771D01*
X135128571Y-79252771D02*
X135090476Y-79328961D01*
X135090476Y-79328961D02*
X135052381Y-79367057D01*
X135052381Y-79367057D02*
X134976190Y-79405152D01*
X134976190Y-79405152D02*
X134823809Y-79405152D01*
X134823809Y-79405152D02*
X134747619Y-79443247D01*
X134747619Y-79443247D02*
X134709524Y-79481342D01*
X134709524Y-79481342D02*
X134671428Y-79557533D01*
X134671428Y-79557533D02*
X134671428Y-79709914D01*
X134671428Y-79709914D02*
X134709524Y-79786104D01*
X134709524Y-79786104D02*
X134747619Y-79824200D01*
X134747619Y-79824200D02*
X134823809Y-79862295D01*
X134823809Y-79862295D02*
X134976190Y-79862295D01*
X134976190Y-79862295D02*
X135052381Y-79824200D01*
X135052381Y-79824200D02*
X135090476Y-79786104D01*
X135090476Y-79786104D02*
X135128571Y-79709914D01*
X135128571Y-79709914D02*
X135128571Y-79557533D01*
X135128571Y-79557533D02*
X135090476Y-79481342D01*
X135090476Y-79481342D02*
X135052381Y-79443247D01*
X135052381Y-79443247D02*
X134976190Y-79405152D01*
X140366667Y-95362295D02*
X140100000Y-94981342D01*
X139909524Y-95362295D02*
X139909524Y-94562295D01*
X139909524Y-94562295D02*
X140214286Y-94562295D01*
X140214286Y-94562295D02*
X140290476Y-94600390D01*
X140290476Y-94600390D02*
X140328571Y-94638485D01*
X140328571Y-94638485D02*
X140366667Y-94714676D01*
X140366667Y-94714676D02*
X140366667Y-94828961D01*
X140366667Y-94828961D02*
X140328571Y-94905152D01*
X140328571Y-94905152D02*
X140290476Y-94943247D01*
X140290476Y-94943247D02*
X140214286Y-94981342D01*
X140214286Y-94981342D02*
X139909524Y-94981342D01*
X141128571Y-95362295D02*
X140671428Y-95362295D01*
X140900000Y-95362295D02*
X140900000Y-94562295D01*
X140900000Y-94562295D02*
X140823809Y-94676580D01*
X140823809Y-94676580D02*
X140747619Y-94752771D01*
X140747619Y-94752771D02*
X140671428Y-94790866D01*
X141366667Y-79862295D02*
X141100000Y-79481342D01*
X140909524Y-79862295D02*
X140909524Y-79062295D01*
X140909524Y-79062295D02*
X141214286Y-79062295D01*
X141214286Y-79062295D02*
X141290476Y-79100390D01*
X141290476Y-79100390D02*
X141328571Y-79138485D01*
X141328571Y-79138485D02*
X141366667Y-79214676D01*
X141366667Y-79214676D02*
X141366667Y-79328961D01*
X141366667Y-79328961D02*
X141328571Y-79405152D01*
X141328571Y-79405152D02*
X141290476Y-79443247D01*
X141290476Y-79443247D02*
X141214286Y-79481342D01*
X141214286Y-79481342D02*
X140909524Y-79481342D01*
X142052381Y-79062295D02*
X141900000Y-79062295D01*
X141900000Y-79062295D02*
X141823809Y-79100390D01*
X141823809Y-79100390D02*
X141785714Y-79138485D01*
X141785714Y-79138485D02*
X141709524Y-79252771D01*
X141709524Y-79252771D02*
X141671428Y-79405152D01*
X141671428Y-79405152D02*
X141671428Y-79709914D01*
X141671428Y-79709914D02*
X141709524Y-79786104D01*
X141709524Y-79786104D02*
X141747619Y-79824200D01*
X141747619Y-79824200D02*
X141823809Y-79862295D01*
X141823809Y-79862295D02*
X141976190Y-79862295D01*
X141976190Y-79862295D02*
X142052381Y-79824200D01*
X142052381Y-79824200D02*
X142090476Y-79786104D01*
X142090476Y-79786104D02*
X142128571Y-79709914D01*
X142128571Y-79709914D02*
X142128571Y-79519438D01*
X142128571Y-79519438D02*
X142090476Y-79443247D01*
X142090476Y-79443247D02*
X142052381Y-79405152D01*
X142052381Y-79405152D02*
X141976190Y-79367057D01*
X141976190Y-79367057D02*
X141823809Y-79367057D01*
X141823809Y-79367057D02*
X141747619Y-79405152D01*
X141747619Y-79405152D02*
X141709524Y-79443247D01*
X141709524Y-79443247D02*
X141671428Y-79519438D01*
X132366667Y-86786104D02*
X132328571Y-86824200D01*
X132328571Y-86824200D02*
X132214286Y-86862295D01*
X132214286Y-86862295D02*
X132138095Y-86862295D01*
X132138095Y-86862295D02*
X132023809Y-86824200D01*
X132023809Y-86824200D02*
X131947619Y-86748009D01*
X131947619Y-86748009D02*
X131909524Y-86671819D01*
X131909524Y-86671819D02*
X131871428Y-86519438D01*
X131871428Y-86519438D02*
X131871428Y-86405152D01*
X131871428Y-86405152D02*
X131909524Y-86252771D01*
X131909524Y-86252771D02*
X131947619Y-86176580D01*
X131947619Y-86176580D02*
X132023809Y-86100390D01*
X132023809Y-86100390D02*
X132138095Y-86062295D01*
X132138095Y-86062295D02*
X132214286Y-86062295D01*
X132214286Y-86062295D02*
X132328571Y-86100390D01*
X132328571Y-86100390D02*
X132366667Y-86138485D01*
X132671428Y-86138485D02*
X132709524Y-86100390D01*
X132709524Y-86100390D02*
X132785714Y-86062295D01*
X132785714Y-86062295D02*
X132976190Y-86062295D01*
X132976190Y-86062295D02*
X133052381Y-86100390D01*
X133052381Y-86100390D02*
X133090476Y-86138485D01*
X133090476Y-86138485D02*
X133128571Y-86214676D01*
X133128571Y-86214676D02*
X133128571Y-86290866D01*
X133128571Y-86290866D02*
X133090476Y-86405152D01*
X133090476Y-86405152D02*
X132633333Y-86862295D01*
X132633333Y-86862295D02*
X133128571Y-86862295D01*
D11*
%TO.C,C1*%
X129513000Y-83914348D02*
X129513000Y-84436852D01*
X128043000Y-83914348D02*
X128043000Y-84436852D01*
%TO.C,U1*%
X136836000Y-85344000D02*
X136836000Y-88944000D01*
X136836000Y-85344000D02*
X136836000Y-83144000D01*
X142056000Y-85344000D02*
X142056000Y-87544000D01*
X142056000Y-85344000D02*
X142056000Y-83144000D01*
%TO.C,R5*%
X132510200Y-77157948D02*
X132510200Y-77680452D01*
X131040200Y-77157948D02*
X131040200Y-77680452D01*
%TO.C,R4*%
X130735000Y-96738748D02*
X130735000Y-97261252D01*
X129265000Y-96738748D02*
X129265000Y-97261252D01*
%TO.C,R3*%
X135265000Y-92761252D02*
X135265000Y-92238748D01*
X136735000Y-92761252D02*
X136735000Y-92238748D01*
%TO.C,R2*%
X137265000Y-92761252D02*
X137265000Y-92238748D01*
X138735000Y-92761252D02*
X138735000Y-92238748D01*
%TO.C,R7*%
X137542600Y-77157948D02*
X137542600Y-77680452D01*
X139012600Y-77157948D02*
X139012600Y-77680452D01*
%TO.C,R8*%
X134291400Y-77157948D02*
X134291400Y-77680452D01*
X135761400Y-77157948D02*
X135761400Y-77680452D01*
%TO.C,R1*%
X139765000Y-92761252D02*
X139765000Y-92238748D01*
X141235000Y-92761252D02*
X141235000Y-92238748D01*
%TO.C,R6*%
X142111400Y-77122348D02*
X142111400Y-77644852D01*
X140641400Y-77122348D02*
X140641400Y-77644852D01*
%TO.C,JP3*%
X134000000Y-85400000D02*
X134000000Y-82600000D01*
X136000000Y-85400000D02*
X134000000Y-85400000D01*
X134000000Y-82600000D02*
X136000000Y-82600000D01*
X136000000Y-82600000D02*
X136000000Y-85400000D01*
%TO.C,C2*%
X132992800Y-83863548D02*
X132992800Y-84386052D01*
X131522800Y-83863548D02*
X131522800Y-84386052D01*
%TD*%
M02*
