%TF.GenerationSoftware,KiCad,Pcbnew,7.0.7*%
%TF.CreationDate,2023-09-03T00:48:05-05:00*%
%TF.ProjectId,SNES_RGB_BYPASS_AMP,534e4553-5f52-4474-925f-425950415353,rev?*%
%TF.SameCoordinates,Original*%
%TF.FileFunction,Copper,L1,Top*%
%TF.FilePolarity,Positive*%
%FSLAX46Y46*%
G04 Gerber Fmt 4.6, Leading zero omitted, Abs format (unit mm)*
G04 Created by KiCad (PCBNEW 7.0.7) date 2023-09-03 00:48:05*
%MOMM*%
%LPD*%
G01*
G04 APERTURE LIST*
G04 Aperture macros list*
%AMRoundRect*
0 Rectangle with rounded corners*
0 $1 Rounding radius*
0 $2 $3 $4 $5 $6 $7 $8 $9 X,Y pos of 4 corners*
0 Add a 4 corners polygon primitive as box body*
4,1,4,$2,$3,$4,$5,$6,$7,$8,$9,$2,$3,0*
0 Add four circle primitives for the rounded corners*
1,1,$1+$1,$2,$3*
1,1,$1+$1,$4,$5*
1,1,$1+$1,$6,$7*
1,1,$1+$1,$8,$9*
0 Add four rect primitives between the rounded corners*
20,1,$1+$1,$2,$3,$4,$5,0*
20,1,$1+$1,$4,$5,$6,$7,0*
20,1,$1+$1,$6,$7,$8,$9,0*
20,1,$1+$1,$8,$9,$2,$3,0*%
G04 Aperture macros list end*
%TA.AperFunction,SMDPad,CuDef*%
%ADD10RoundRect,0.250000X0.475000X-0.250000X0.475000X0.250000X-0.475000X0.250000X-0.475000X-0.250000X0*%
%TD*%
%TA.AperFunction,SMDPad,CuDef*%
%ADD11R,1.500000X1.000000*%
%TD*%
%TA.AperFunction,SMDPad,CuDef*%
%ADD12RoundRect,0.100000X0.100000X-0.637500X0.100000X0.637500X-0.100000X0.637500X-0.100000X-0.637500X0*%
%TD*%
%TA.AperFunction,SMDPad,CuDef*%
%ADD13RoundRect,0.250000X-0.475000X0.250000X-0.475000X-0.250000X0.475000X-0.250000X0.475000X0.250000X0*%
%TD*%
%TA.AperFunction,SMDPad,CuDef*%
%ADD14R,2.000000X2.000000*%
%TD*%
%TA.AperFunction,SMDPad,CuDef*%
%ADD15R,1.700000X1.700000*%
%TD*%
%TA.AperFunction,ComponentPad*%
%ADD16C,1.700000*%
%TD*%
%TA.AperFunction,ComponentPad*%
%ADD17O,1.700000X1.700000*%
%TD*%
%TA.AperFunction,ViaPad*%
%ADD18C,0.800000*%
%TD*%
%TA.AperFunction,Conductor*%
%ADD19C,0.250000*%
%TD*%
G04 APERTURE END LIST*
D10*
%TO.P,C1,1*%
%TO.N,VCC*%
X132300000Y-81400000D03*
%TO.P,C1,2*%
%TO.N,GND*%
X132300000Y-79500000D03*
%TD*%
D11*
%TO.P,JP2,1,A*%
%TO.N,Net-(JP1-B)*%
X130200000Y-89900000D03*
%TO.P,JP2,2,B*%
%TO.N,Net-(JP2-B)*%
X130200000Y-88600000D03*
%TD*%
D12*
%TO.P,U1,1,CH1_IN*%
%TO.N,/CSync*%
X137496000Y-88206500D03*
%TO.P,U1,2,CH2_IN*%
%TO.N,/B*%
X138146000Y-88206500D03*
%TO.P,U1,3,CH3_IN*%
%TO.N,/G*%
X138796000Y-88206500D03*
%TO.P,U1,4,CH4_IN*%
%TO.N,/R*%
X139446000Y-88206500D03*
%TO.P,U1,5,GND*%
%TO.N,GND*%
X140096000Y-88206500D03*
%TO.P,U1,6,DISABLE*%
X140746000Y-88206500D03*
%TO.P,U1,7,NC*%
%TO.N,unconnected-(U1-NC-Pad7)*%
X141396000Y-88206500D03*
%TO.P,U1,8,NC*%
%TO.N,unconnected-(U1-NC-Pad8)*%
X141396000Y-82481500D03*
%TO.P,U1,9,BYPASS*%
%TO.N,Net-(JP1-B)*%
X140746000Y-82481500D03*
%TO.P,U1,10,V_{S+}*%
%TO.N,VCC*%
X140096000Y-82481500D03*
%TO.P,U1,11,CH4_OUT*%
%TO.N,Net-(U1-CH4_OUT)*%
X139446000Y-82481500D03*
%TO.P,U1,12,CH3_OUT*%
%TO.N,Net-(U1-CH3_OUT)*%
X138796000Y-82481500D03*
%TO.P,U1,13,CH2_OUT*%
%TO.N,Net-(U1-CH2_OUT)*%
X138146000Y-82481500D03*
%TO.P,U1,14,CH1_OUT*%
%TO.N,Net-(JP3-A)*%
X137496000Y-82481500D03*
%TD*%
D13*
%TO.P,R5,1*%
%TO.N,/CSync'*%
X135500000Y-77550000D03*
%TO.P,R5,2*%
%TO.N,Net-(JP3-A)*%
X135500000Y-79450000D03*
%TD*%
D10*
%TO.P,R4,1*%
%TO.N,Net-(JP2-B)*%
X129300000Y-85050000D03*
%TO.P,R4,2*%
%TO.N,VCC*%
X129300000Y-83150000D03*
%TD*%
%TO.P,R3,1*%
%TO.N,GND*%
X136000000Y-93450000D03*
%TO.P,R3,2*%
%TO.N,/B*%
X136000000Y-91550000D03*
%TD*%
D14*
%TO.P,J1,1,Pin_1*%
%TO.N,/CSync*%
X133420000Y-97475000D03*
D15*
%TO.P,J1,2,Pin_2*%
%TO.N,/B*%
X135960000Y-97475000D03*
D14*
%TO.P,J1,3,Pin_3*%
%TO.N,/G*%
X138500000Y-97475000D03*
%TO.P,J1,4,Pin_4*%
%TO.N,/R*%
X141040000Y-97475000D03*
%TD*%
D11*
%TO.P,JP1,1,A*%
%TO.N,GND*%
X133100000Y-88600000D03*
%TO.P,JP1,2,B*%
%TO.N,Net-(JP1-B)*%
X133100000Y-89900000D03*
%TD*%
D10*
%TO.P,R2,1*%
%TO.N,GND*%
X138000000Y-93450000D03*
%TO.P,R2,2*%
%TO.N,/G*%
X138000000Y-91550000D03*
%TD*%
D13*
%TO.P,R7,1*%
%TO.N,/G'*%
X139500000Y-77500000D03*
%TO.P,R7,2*%
%TO.N,Net-(U1-CH3_OUT)*%
X139500000Y-79400000D03*
%TD*%
%TO.P,R8,1*%
%TO.N,/R'*%
X141500000Y-77550000D03*
%TO.P,R8,2*%
%TO.N,Net-(U1-CH4_OUT)*%
X141500000Y-79450000D03*
%TD*%
D10*
%TO.P,R1,1*%
%TO.N,GND*%
X140500000Y-93450000D03*
%TO.P,R1,2*%
%TO.N,/R*%
X140500000Y-91550000D03*
%TD*%
D13*
%TO.P,R6,1*%
%TO.N,/B'*%
X137500000Y-77550000D03*
%TO.P,R6,2*%
%TO.N,Net-(U1-CH2_OUT)*%
X137500000Y-79450000D03*
%TD*%
D11*
%TO.P,JP3,1,A*%
%TO.N,Net-(JP3-A)*%
X135000000Y-84650000D03*
%TO.P,JP3,2,B*%
%TO.N,/CSync'*%
X135000000Y-83350000D03*
%TD*%
D13*
%TO.P,C2,1*%
%TO.N,VCC*%
X132257800Y-83174800D03*
%TO.P,C2,2*%
%TO.N,GND*%
X132257800Y-85074800D03*
%TD*%
D16*
%TO.P,J2,1,Pin_1*%
%TO.N,/R'*%
X141325600Y-73411000D03*
D17*
%TO.P,J2,2,Pin_2*%
%TO.N,/G'*%
X141325600Y-70871000D03*
%TO.P,J2,3,Pin_3*%
%TO.N,/CSync'*%
X138785600Y-73411000D03*
%TO.P,J2,4,Pin_4*%
%TO.N,/B'*%
X138785600Y-70871000D03*
%TO.P,J2,5,Pin_5*%
%TO.N,GND*%
X136245600Y-73411000D03*
%TO.P,J2,6,Pin_6*%
X136245600Y-70871000D03*
%TO.P,J2,7,Pin_7*%
%TO.N,unconnected-(J2-Pin_7-Pad7)*%
X133705600Y-73411000D03*
%TO.P,J2,8,Pin_8*%
%TO.N,unconnected-(J2-Pin_8-Pad8)*%
X133705600Y-70871000D03*
%TO.P,J2,9,Pin_9*%
%TO.N,unconnected-(J2-Pin_9-Pad9)*%
X131165600Y-73411000D03*
%TO.P,J2,10,Pin_10*%
%TO.N,VCC*%
X131165600Y-70871000D03*
%TO.P,J2,11,Pin_11*%
%TO.N,unconnected-(J2-Pin_11-Pad11)*%
X128625600Y-73411000D03*
%TO.P,J2,12,Pin_12*%
%TO.N,unconnected-(J2-Pin_12-Pad12)*%
X128625600Y-70871000D03*
%TD*%
D18*
%TO.N,VCC*%
X139400000Y-84000000D03*
X132257800Y-83174800D03*
%TO.N,GND*%
X142000000Y-92000000D03*
X138000000Y-93450000D03*
X140100000Y-85900000D03*
X137100000Y-85800000D03*
X140500000Y-93450000D03*
X136000000Y-93450000D03*
%TD*%
D19*
%TO.N,VCC*%
X129990600Y-72046000D02*
X129990600Y-79000000D01*
X131165600Y-70871000D02*
X129990600Y-72046000D01*
X129300000Y-83150000D02*
X129300000Y-79781200D01*
X132300000Y-81400000D02*
X132300000Y-83132600D01*
X140096000Y-82481500D02*
X140096000Y-83304000D01*
X132300000Y-83132600D02*
X132257800Y-83174800D01*
X140096000Y-83304000D02*
X139400000Y-84000000D01*
X129990600Y-79090600D02*
X132300000Y-81400000D01*
X129990600Y-79000000D02*
X129990600Y-79090600D01*
X129300000Y-79781200D02*
X129990600Y-79090600D01*
%TO.N,GND*%
X140100000Y-88202500D02*
X140096000Y-88206500D01*
X140100000Y-85900000D02*
X140100000Y-88202500D01*
X133350000Y-80550000D02*
X133350000Y-83982600D01*
X132300000Y-77356600D02*
X132300000Y-79500000D01*
X133100000Y-85917000D02*
X133100000Y-88600000D01*
X142000000Y-91511827D02*
X140096000Y-89607827D01*
X136245600Y-73411000D02*
X136245600Y-70871000D01*
X132257800Y-85074800D02*
X132291500Y-85108500D01*
X140096000Y-89607827D02*
X140096000Y-88206500D01*
X142000000Y-92000000D02*
X142000000Y-91511827D01*
X132300000Y-79500000D02*
X133350000Y-80550000D01*
X132291500Y-85108500D02*
X133100000Y-85917000D01*
X133100000Y-88600000D02*
X134300000Y-88600000D01*
X136245600Y-73411000D02*
X132300000Y-77356600D01*
X142000000Y-90169000D02*
X141915500Y-90084500D01*
X133100000Y-88600000D02*
X132500000Y-88600000D01*
X134300000Y-88600000D02*
X137100000Y-85800000D01*
X140746000Y-88915000D02*
X140746000Y-88206500D01*
X142000000Y-90169000D02*
X142000000Y-92000000D01*
X141915500Y-90084500D02*
X140746000Y-88915000D01*
X133350000Y-83982600D02*
X132257800Y-85074800D01*
%TO.N,/CSync*%
X133420000Y-97475000D02*
X133420000Y-92591827D01*
X137496000Y-88515827D02*
X137496000Y-88206500D01*
X133420000Y-92591827D02*
X137496000Y-88515827D01*
%TO.N,/R*%
X140500000Y-91550000D02*
X139446000Y-90496000D01*
X141040000Y-97475000D02*
X141890000Y-96625000D01*
X141890000Y-92940000D02*
X140500000Y-91550000D01*
X141890000Y-96625000D02*
X141890000Y-92940000D01*
X139446000Y-90496000D02*
X139446000Y-88206500D01*
%TO.N,/G*%
X138796000Y-90754000D02*
X138796000Y-88206500D01*
X138500000Y-97475000D02*
X139350000Y-96625000D01*
X138000000Y-91550000D02*
X138796000Y-90754000D01*
X139350000Y-92900000D02*
X138000000Y-91550000D01*
X139350000Y-96625000D02*
X139350000Y-92900000D01*
%TO.N,/B*%
X134950000Y-92600000D02*
X136000000Y-91550000D01*
X138146000Y-89404000D02*
X138146000Y-88206500D01*
X136000000Y-91550000D02*
X138146000Y-89404000D01*
X135960000Y-97475000D02*
X134950000Y-96465000D01*
X134950000Y-96465000D02*
X134950000Y-92600000D01*
%TO.N,/G'*%
X142213173Y-78375000D02*
X140375000Y-78375000D01*
X142550000Y-78038173D02*
X142213173Y-78375000D01*
X142550000Y-72095400D02*
X142550000Y-78038173D01*
X140375000Y-78375000D02*
X139500000Y-77500000D01*
X141325600Y-70871000D02*
X142550000Y-72095400D01*
%TO.N,/R'*%
X141325600Y-77375600D02*
X141325600Y-73411000D01*
X141500000Y-77550000D02*
X141325600Y-77375600D01*
%TO.N,/B'*%
X139960600Y-75089400D02*
X139960600Y-72046000D01*
X139960600Y-72046000D02*
X138785600Y-70871000D01*
X137500000Y-77550000D02*
X139960600Y-75089400D01*
%TO.N,/CSync'*%
X134450000Y-78600000D02*
X134450000Y-82800000D01*
X135500000Y-77550000D02*
X135500000Y-76696600D01*
X134450000Y-82800000D02*
X135000000Y-83350000D01*
X135500000Y-77550000D02*
X134450000Y-78600000D01*
X135500000Y-76696600D02*
X138785600Y-73411000D01*
%TO.N,Net-(JP2-B)*%
X130200000Y-85950000D02*
X130200000Y-88600000D01*
X129300000Y-85050000D02*
X130200000Y-85950000D01*
X129300000Y-84850000D02*
X128925000Y-85225000D01*
%TO.N,Net-(JP3-A)*%
X137496000Y-83154000D02*
X136000000Y-84650000D01*
X136000000Y-84650000D02*
X135000000Y-84650000D01*
X137496000Y-82481500D02*
X137496000Y-83154000D01*
X137496000Y-81446000D02*
X135500000Y-79450000D01*
X137496000Y-82481500D02*
X137496000Y-81446000D01*
%TO.N,Net-(JP1-B)*%
X140746000Y-82481500D02*
X140820500Y-82556000D01*
X134400000Y-89900000D02*
X133100000Y-89900000D01*
X133100000Y-89900000D02*
X130200000Y-89900000D01*
X137500000Y-87144000D02*
X137156000Y-87144000D01*
X140746000Y-82481500D02*
X140746000Y-83898000D01*
X137156000Y-87144000D02*
X134400000Y-89900000D01*
X140746000Y-83898000D02*
X137500000Y-87144000D01*
%TO.N,Net-(U1-CH2_OUT)*%
X138071500Y-82407000D02*
X138146000Y-82481500D01*
X138146000Y-82481500D02*
X138146000Y-80096000D01*
X138146000Y-80096000D02*
X137500000Y-79450000D01*
%TO.N,Net-(U1-CH3_OUT)*%
X138796000Y-80104000D02*
X139500000Y-79400000D01*
X138796000Y-82481500D02*
X138796000Y-80104000D01*
%TO.N,Net-(U1-CH4_OUT)*%
X139446000Y-81792959D02*
X141500000Y-79738959D01*
X141500000Y-79738959D02*
X141500000Y-79450000D01*
X139520500Y-82407000D02*
X139446000Y-82481500D01*
X139446000Y-82481500D02*
X139446000Y-81792959D01*
%TD*%
M02*
