%TF.GenerationSoftware,KiCad,Pcbnew,7.0.7*%
%TF.CreationDate,2023-09-01T15:10:47-05:00*%
%TF.ProjectId,SNES_RGB_BYPASS_AMP,534e4553-5f52-4474-925f-425950415353,rev?*%
%TF.SameCoordinates,Original*%
%TF.FileFunction,Soldermask,Top*%
%TF.FilePolarity,Negative*%
%FSLAX46Y46*%
G04 Gerber Fmt 4.6, Leading zero omitted, Abs format (unit mm)*
G04 Created by KiCad (PCBNEW 7.0.7) date 2023-09-01 15:10:47*
%MOMM*%
%LPD*%
G01*
G04 APERTURE LIST*
G04 Aperture macros list*
%AMRoundRect*
0 Rectangle with rounded corners*
0 $1 Rounding radius*
0 $2 $3 $4 $5 $6 $7 $8 $9 X,Y pos of 4 corners*
0 Add a 4 corners polygon primitive as box body*
4,1,4,$2,$3,$4,$5,$6,$7,$8,$9,$2,$3,0*
0 Add four circle primitives for the rounded corners*
1,1,$1+$1,$2,$3*
1,1,$1+$1,$4,$5*
1,1,$1+$1,$6,$7*
1,1,$1+$1,$8,$9*
0 Add four rect primitives between the rounded corners*
20,1,$1+$1,$2,$3,$4,$5,0*
20,1,$1+$1,$4,$5,$6,$7,0*
20,1,$1+$1,$6,$7,$8,$9,0*
20,1,$1+$1,$8,$9,$2,$3,0*%
G04 Aperture macros list end*
%ADD10R,2.000000X2.000000*%
%ADD11RoundRect,0.250000X-0.475000X0.250000X-0.475000X-0.250000X0.475000X-0.250000X0.475000X0.250000X0*%
%ADD12R,1.500000X1.000000*%
%ADD13RoundRect,0.100000X0.100000X-0.637500X0.100000X0.637500X-0.100000X0.637500X-0.100000X-0.637500X0*%
%ADD14RoundRect,0.250000X0.475000X-0.250000X0.475000X0.250000X-0.475000X0.250000X-0.475000X-0.250000X0*%
%ADD15C,1.700000*%
%ADD16O,1.700000X1.700000*%
G04 APERTURE END LIST*
D10*
%TO.C,J1*%
X133420000Y-97475000D03*
X135960000Y-97475000D03*
X138500000Y-97475000D03*
X141040000Y-97475000D03*
%TD*%
D11*
%TO.C,C1*%
X128778000Y-83225600D03*
X128778000Y-85125600D03*
%TD*%
D12*
%TO.C,JP2*%
X130000000Y-92850000D03*
X130000000Y-94150000D03*
%TD*%
D13*
%TO.C,U1*%
X137496000Y-88206500D03*
X138146000Y-88206500D03*
X138796000Y-88206500D03*
X139446000Y-88206500D03*
X140096000Y-88206500D03*
X140746000Y-88206500D03*
X141396000Y-88206500D03*
X141396000Y-82481500D03*
X140746000Y-82481500D03*
X140096000Y-82481500D03*
X139446000Y-82481500D03*
X138796000Y-82481500D03*
X138146000Y-82481500D03*
X137496000Y-82481500D03*
%TD*%
D11*
%TO.C,R5*%
X131775200Y-76469200D03*
X131775200Y-78369200D03*
%TD*%
%TO.C,R4*%
X130000000Y-96050000D03*
X130000000Y-97950000D03*
%TD*%
D14*
%TO.C,R3*%
X136000000Y-93450000D03*
X136000000Y-91550000D03*
%TD*%
D12*
%TO.C,JP1*%
X130000000Y-89350000D03*
X130000000Y-90650000D03*
%TD*%
D14*
%TO.C,R2*%
X138000000Y-93450000D03*
X138000000Y-91550000D03*
%TD*%
D11*
%TO.C,R7*%
X138277600Y-78369200D03*
X138277600Y-76469200D03*
%TD*%
%TO.C,R8*%
X135026400Y-78369200D03*
X135026400Y-76469200D03*
%TD*%
D14*
%TO.C,R1*%
X140500000Y-93450000D03*
X140500000Y-91550000D03*
%TD*%
D11*
%TO.C,R6*%
X141376400Y-76433600D03*
X141376400Y-78333600D03*
%TD*%
D12*
%TO.C,JP3*%
X135000000Y-84650000D03*
X135000000Y-83350000D03*
%TD*%
D11*
%TO.C,C2*%
X132257800Y-83174800D03*
X132257800Y-85074800D03*
%TD*%
D15*
%TO.C,J2*%
X141325600Y-73411000D03*
D16*
X141325600Y-70871000D03*
X138785600Y-73411000D03*
X138785600Y-70871000D03*
X136245600Y-73411000D03*
X136245600Y-70871000D03*
X133705600Y-73411000D03*
X133705600Y-70871000D03*
X131165600Y-73411000D03*
X131165600Y-70871000D03*
X128625600Y-73411000D03*
X128625600Y-70871000D03*
%TD*%
M02*
