%TF.GenerationSoftware,KiCad,Pcbnew,7.0.7*%
%TF.CreationDate,2023-09-01T15:02:05-05:00*%
%TF.ProjectId,SNES_RGB_BYPASS_AMP,534e4553-5f52-4474-925f-425950415353,rev?*%
%TF.SameCoordinates,Original*%
%TF.FileFunction,Copper,L1,Top*%
%TF.FilePolarity,Positive*%
%FSLAX46Y46*%
G04 Gerber Fmt 4.6, Leading zero omitted, Abs format (unit mm)*
G04 Created by KiCad (PCBNEW 7.0.7) date 2023-09-01 15:02:05*
%MOMM*%
%LPD*%
G01*
G04 APERTURE LIST*
G04 Aperture macros list*
%AMRoundRect*
0 Rectangle with rounded corners*
0 $1 Rounding radius*
0 $2 $3 $4 $5 $6 $7 $8 $9 X,Y pos of 4 corners*
0 Add a 4 corners polygon primitive as box body*
4,1,4,$2,$3,$4,$5,$6,$7,$8,$9,$2,$3,0*
0 Add four circle primitives for the rounded corners*
1,1,$1+$1,$2,$3*
1,1,$1+$1,$4,$5*
1,1,$1+$1,$6,$7*
1,1,$1+$1,$8,$9*
0 Add four rect primitives between the rounded corners*
20,1,$1+$1,$2,$3,$4,$5,0*
20,1,$1+$1,$4,$5,$6,$7,0*
20,1,$1+$1,$6,$7,$8,$9,0*
20,1,$1+$1,$8,$9,$2,$3,0*%
G04 Aperture macros list end*
%TA.AperFunction,SMDPad,CuDef*%
%ADD10RoundRect,0.250000X-0.475000X0.250000X-0.475000X-0.250000X0.475000X-0.250000X0.475000X0.250000X0*%
%TD*%
%TA.AperFunction,SMDPad,CuDef*%
%ADD11R,1.500000X1.000000*%
%TD*%
%TA.AperFunction,SMDPad,CuDef*%
%ADD12RoundRect,0.100000X0.100000X-0.637500X0.100000X0.637500X-0.100000X0.637500X-0.100000X-0.637500X0*%
%TD*%
%TA.AperFunction,SMDPad,CuDef*%
%ADD13RoundRect,0.250000X0.475000X-0.250000X0.475000X0.250000X-0.475000X0.250000X-0.475000X-0.250000X0*%
%TD*%
%TA.AperFunction,SMDPad,CuDef*%
%ADD14R,2.000000X2.000000*%
%TD*%
%TA.AperFunction,ComponentPad*%
%ADD15C,1.700000*%
%TD*%
%TA.AperFunction,ComponentPad*%
%ADD16O,1.700000X1.700000*%
%TD*%
%TA.AperFunction,ViaPad*%
%ADD17C,0.800000*%
%TD*%
%TA.AperFunction,Conductor*%
%ADD18C,0.250000*%
%TD*%
G04 APERTURE END LIST*
D10*
%TO.P,C1,1*%
%TO.N,VCC*%
X128778000Y-83225600D03*
%TO.P,C1,2*%
%TO.N,GND*%
X128778000Y-85125600D03*
%TD*%
D11*
%TO.P,JP2,1,A*%
%TO.N,Net-(JP1-B)*%
X130000000Y-92850000D03*
%TO.P,JP2,2,B*%
%TO.N,Net-(JP2-B)*%
X130000000Y-94150000D03*
%TD*%
D12*
%TO.P,U1,1,CH1_IN*%
%TO.N,/CSync*%
X137496000Y-88206500D03*
%TO.P,U1,2,CH2_IN*%
%TO.N,/R*%
X138146000Y-88206500D03*
%TO.P,U1,3,CH3_IN*%
%TO.N,/G*%
X138796000Y-88206500D03*
%TO.P,U1,4,CH4_IN*%
%TO.N,/B*%
X139446000Y-88206500D03*
%TO.P,U1,5,GND*%
%TO.N,GND*%
X140096000Y-88206500D03*
%TO.P,U1,6,DISABLE*%
X140746000Y-88206500D03*
%TO.P,U1,7,NC*%
%TO.N,unconnected-(U1-NC-Pad7)*%
X141396000Y-88206500D03*
%TO.P,U1,8,NC*%
%TO.N,unconnected-(U1-NC-Pad8)*%
X141396000Y-82481500D03*
%TO.P,U1,9,BYPASS*%
%TO.N,Net-(JP1-B)*%
X140746000Y-82481500D03*
%TO.P,U1,10,V_{S+}*%
%TO.N,VCC*%
X140096000Y-82481500D03*
%TO.P,U1,11,CH4_OUT*%
%TO.N,Net-(U1-CH4_OUT)*%
X139446000Y-82481500D03*
%TO.P,U1,12,CH3_OUT*%
%TO.N,Net-(U1-CH3_OUT)*%
X138796000Y-82481500D03*
%TO.P,U1,13,CH2_OUT*%
%TO.N,Net-(U1-CH2_OUT)*%
X138146000Y-82481500D03*
%TO.P,U1,14,CH1_OUT*%
%TO.N,Net-(JP3-A)*%
X137496000Y-82481500D03*
%TD*%
D10*
%TO.P,R5,1*%
%TO.N,/CSync'*%
X131775200Y-76469200D03*
%TO.P,R5,2*%
%TO.N,Net-(JP3-A)*%
X131775200Y-78369200D03*
%TD*%
%TO.P,R4,1*%
%TO.N,Net-(JP2-B)*%
X130000000Y-96050000D03*
%TO.P,R4,2*%
%TO.N,VCC*%
X130000000Y-97950000D03*
%TD*%
D13*
%TO.P,R3,1*%
%TO.N,GND*%
X136000000Y-93450000D03*
%TO.P,R3,2*%
%TO.N,/R*%
X136000000Y-91550000D03*
%TD*%
D14*
%TO.P,J1,1,Pin_1*%
%TO.N,/CSync*%
X133420000Y-97475000D03*
%TO.P,J1,2,Pin_2*%
%TO.N,/R*%
X135960000Y-97475000D03*
%TO.P,J1,3,Pin_3*%
%TO.N,/G*%
X138500000Y-97475000D03*
%TO.P,J1,4,Pin_4*%
%TO.N,/B*%
X141040000Y-97475000D03*
%TD*%
D11*
%TO.P,JP1,1,A*%
%TO.N,GND*%
X130000000Y-89350000D03*
%TO.P,JP1,2,B*%
%TO.N,Net-(JP1-B)*%
X130000000Y-90650000D03*
%TD*%
D13*
%TO.P,R2,1*%
%TO.N,GND*%
X138000000Y-93450000D03*
%TO.P,R2,2*%
%TO.N,/G*%
X138000000Y-91550000D03*
%TD*%
D10*
%TO.P,R7,1*%
%TO.N,/G'*%
X138277600Y-76469200D03*
%TO.P,R7,2*%
%TO.N,Net-(U1-CH3_OUT)*%
X138277600Y-78369200D03*
%TD*%
%TO.P,R8,1*%
%TO.N,/B'*%
X135026400Y-76469200D03*
%TO.P,R8,2*%
%TO.N,Net-(U1-CH4_OUT)*%
X135026400Y-78369200D03*
%TD*%
D13*
%TO.P,R1,1*%
%TO.N,GND*%
X140500000Y-93450000D03*
%TO.P,R1,2*%
%TO.N,/B*%
X140500000Y-91550000D03*
%TD*%
D10*
%TO.P,R6,1*%
%TO.N,/R'*%
X141376400Y-76433600D03*
%TO.P,R6,2*%
%TO.N,Net-(U1-CH2_OUT)*%
X141376400Y-78333600D03*
%TD*%
D11*
%TO.P,JP3,1,A*%
%TO.N,Net-(JP3-A)*%
X135000000Y-84650000D03*
%TO.P,JP3,2,B*%
%TO.N,/CSync'*%
X135000000Y-83350000D03*
%TD*%
D10*
%TO.P,C2,1*%
%TO.N,VCC*%
X132257800Y-83174800D03*
%TO.P,C2,2*%
%TO.N,GND*%
X132257800Y-85074800D03*
%TD*%
D15*
%TO.P,J2,1,Pin_1*%
%TO.N,/R'*%
X141325600Y-73411000D03*
D16*
%TO.P,J2,2,Pin_2*%
%TO.N,/G'*%
X141325600Y-70871000D03*
%TO.P,J2,3,Pin_3*%
%TO.N,unconnected-(J2-Pin_3-Pad3)*%
X138785600Y-73411000D03*
%TO.P,J2,4,Pin_4*%
%TO.N,/B'*%
X138785600Y-70871000D03*
%TO.P,J2,5,Pin_5*%
%TO.N,GND*%
X136245600Y-73411000D03*
%TO.P,J2,6,Pin_6*%
%TO.N,unconnected-(J2-Pin_6-Pad6)*%
X136245600Y-70871000D03*
%TO.P,J2,7,Pin_7*%
%TO.N,unconnected-(J2-Pin_7-Pad7)*%
X133705600Y-73411000D03*
%TO.P,J2,8,Pin_8*%
%TO.N,/CSync'*%
X133705600Y-70871000D03*
%TO.P,J2,9,Pin_9*%
%TO.N,unconnected-(J2-Pin_9-Pad9)*%
X131165600Y-73411000D03*
%TO.P,J2,10,Pin_10*%
%TO.N,VCC*%
X131165600Y-70871000D03*
%TO.P,J2,11,Pin_11*%
%TO.N,unconnected-(J2-Pin_11-Pad11)*%
X128625600Y-73411000D03*
%TO.P,J2,12,Pin_12*%
%TO.N,unconnected-(J2-Pin_12-Pad12)*%
X128625600Y-70871000D03*
%TD*%
D17*
%TO.N,VCC*%
X132257800Y-83174800D03*
X136000000Y-88000000D03*
X130775500Y-88000000D03*
X128778000Y-83225600D03*
%TO.N,GND*%
X142000000Y-92000000D03*
X132257800Y-85074800D03*
X139500000Y-85500000D03*
X138000000Y-93450000D03*
X135485501Y-74985501D03*
X128778000Y-85125600D03*
X130500000Y-75000000D03*
X140500000Y-93450000D03*
X136000000Y-93450000D03*
%TO.N,Net-(JP3-A)*%
X133000000Y-81000000D03*
X136500000Y-81000000D03*
%TO.N,Net-(JP1-B)*%
X140820500Y-86608299D03*
X131500000Y-87000000D03*
%TO.N,Net-(U1-CH2_OUT)*%
X138071500Y-80500000D03*
X141500000Y-80500000D03*
%TO.N,Net-(U1-CH4_OUT)*%
X139520500Y-79500000D03*
X136000000Y-79500000D03*
%TD*%
D18*
%TO.N,VCC*%
X131165600Y-70871000D02*
X129990600Y-72046000D01*
X132257800Y-83174800D02*
X130775500Y-84657100D01*
X129990600Y-74484095D02*
X128778000Y-75696695D01*
X128778000Y-75696695D02*
X128778000Y-83000000D01*
X130775500Y-84657100D02*
X130775500Y-88000000D01*
X140096000Y-83554484D02*
X136000000Y-87650484D01*
X129990600Y-72046000D02*
X129990600Y-74484095D01*
X140096000Y-82481500D02*
X140096000Y-83554484D01*
X128778000Y-83225600D02*
X128778000Y-83000000D01*
X136000000Y-87650484D02*
X136000000Y-88000000D01*
X132225000Y-91775000D02*
X136000000Y-88000000D01*
X130000000Y-97950000D02*
X132225000Y-95725000D01*
X132225000Y-95725000D02*
X132225000Y-91775000D01*
%TO.N,GND*%
X140096000Y-86096000D02*
X140096000Y-88206500D01*
X139500000Y-85500000D02*
X140096000Y-86096000D01*
X142000000Y-91511827D02*
X140096000Y-89607827D01*
X140096000Y-89607827D02*
X140096000Y-88206500D01*
X142000000Y-92000000D02*
X142000000Y-91511827D01*
X130500000Y-83403600D02*
X128778000Y-85125600D01*
X136245600Y-73411000D02*
X136245600Y-74225402D01*
X130500000Y-75000000D02*
X130500000Y-83403600D01*
X142000000Y-90169000D02*
X141915500Y-90084500D01*
X136245600Y-74225402D02*
X135485501Y-74985501D01*
X130000000Y-89350000D02*
X130000000Y-86347600D01*
X130000000Y-86347600D02*
X128778000Y-85125600D01*
X140746000Y-88915000D02*
X140746000Y-88206500D01*
X142000000Y-90169000D02*
X142000000Y-92000000D01*
X141915500Y-90084500D02*
X140746000Y-88915000D01*
%TO.N,/CSync*%
X133420000Y-97475000D02*
X133420000Y-92591827D01*
X137496000Y-88515827D02*
X137496000Y-88206500D01*
X133420000Y-92591827D02*
X137496000Y-88515827D01*
%TO.N,/R*%
X138146000Y-88206500D02*
X138146000Y-89404000D01*
X136000000Y-91550000D02*
X134950000Y-92600000D01*
X138146000Y-89404000D02*
X136000000Y-91550000D01*
X134950000Y-96465000D02*
X135960000Y-97475000D01*
X134950000Y-92600000D02*
X134950000Y-96465000D01*
%TO.N,/G*%
X138796000Y-90754000D02*
X138796000Y-88206500D01*
X138000000Y-91550000D02*
X138796000Y-90754000D01*
X139450000Y-93000000D02*
X139450000Y-96525000D01*
X138000000Y-91550000D02*
X139450000Y-93000000D01*
X139450000Y-96525000D02*
X138500000Y-97475000D01*
%TO.N,/B*%
X140500000Y-91550000D02*
X141550000Y-92600000D01*
X139446000Y-90496000D02*
X139446000Y-88206500D01*
X140500000Y-91550000D02*
X139446000Y-90496000D01*
X141550000Y-96965000D02*
X141040000Y-97475000D01*
X141550000Y-92600000D02*
X141550000Y-96965000D01*
%TO.N,/G'*%
X140150600Y-72046000D02*
X140150600Y-74596200D01*
X141325600Y-70871000D02*
X140150600Y-72046000D01*
X140150600Y-74596200D02*
X138277600Y-76469200D01*
%TO.N,/R'*%
X141325600Y-76382800D02*
X141376400Y-76433600D01*
X141325600Y-73411000D02*
X141325600Y-76382800D01*
%TO.N,/B'*%
X137420600Y-74075000D02*
X135026400Y-76469200D01*
X138785600Y-70871000D02*
X138785600Y-71749299D01*
X138785600Y-71749299D02*
X137420600Y-73114299D01*
X137420600Y-73114299D02*
X137420600Y-74075000D01*
%TO.N,/CSync'*%
X135000000Y-83350000D02*
X135000000Y-80055827D01*
X131775200Y-76831027D02*
X131775200Y-76469200D01*
X132530600Y-72046000D02*
X132530600Y-75713800D01*
X133705600Y-70871000D02*
X132530600Y-72046000D01*
X135000000Y-80055827D02*
X131775200Y-76831027D01*
X132530600Y-75713800D02*
X131775200Y-76469200D01*
%TO.N,Net-(JP2-B)*%
X130000000Y-94150000D02*
X130000000Y-96050000D01*
%TO.N,Net-(JP3-A)*%
X131775200Y-78369200D02*
X131775200Y-79775200D01*
X137496000Y-83154000D02*
X136000000Y-84650000D01*
X136000000Y-84650000D02*
X135000000Y-84650000D01*
X137496000Y-81496000D02*
X137000000Y-81000000D01*
X137496000Y-82481500D02*
X137496000Y-83154000D01*
X137000000Y-81000000D02*
X136500000Y-81000000D01*
X137496000Y-82481500D02*
X137496000Y-81496000D01*
X131775200Y-79775200D02*
X133000000Y-81000000D01*
%TO.N,Net-(JP1-B)*%
X140746000Y-82481500D02*
X140820500Y-82556000D01*
X130000000Y-92850000D02*
X130000000Y-90650000D01*
X131500000Y-90150000D02*
X131000000Y-90650000D01*
X131500000Y-87000000D02*
X131500000Y-90150000D01*
X140820500Y-82556000D02*
X140820500Y-86608299D01*
X131000000Y-90650000D02*
X130000000Y-90650000D01*
%TO.N,Net-(U1-CH2_OUT)*%
X138071500Y-80500000D02*
X138071500Y-82407000D01*
X138071500Y-82407000D02*
X138146000Y-82481500D01*
X141376400Y-80376400D02*
X141500000Y-80500000D01*
X141376400Y-78333600D02*
X141376400Y-80376400D01*
%TO.N,Net-(U1-CH3_OUT)*%
X138277600Y-78369200D02*
X138277600Y-78576641D01*
X138796000Y-79095041D02*
X138796000Y-82481500D01*
X138277600Y-78576641D02*
X138796000Y-79095041D01*
%TO.N,Net-(U1-CH4_OUT)*%
X139520500Y-79500000D02*
X139520500Y-82407000D01*
X135026400Y-78473600D02*
X135000000Y-78500000D01*
X135026400Y-78526400D02*
X136000000Y-79500000D01*
X135026400Y-78369200D02*
X135026400Y-78473600D01*
X135026400Y-78369200D02*
X135026400Y-78526400D01*
X139520500Y-82407000D02*
X139446000Y-82481500D01*
%TD*%
M02*
